MFile 1 2 480
MTrk
0 TimeSig 4/4 24 8
0 KeySig 255 major
0 KeySig 0 major
0 KeySig 0 major
0 KeySig 0 major
0 KeySig 0 major
0 Tempo 500000
0 Par ch=1 c=121 v=0
0 PrCh ch=1 p=1
0 Par ch=1 c=7 v=100
0 Par ch=1 c=10 v=64
0 Par ch=1 c=91 v=0
0 Par ch=1 c=93 v=0
0 Meta 0x21 00
0 On ch=1 n=62 v=64
113 On ch=1 n=62 v=0
120 On ch=1 n=62 v=64
233 On ch=1 n=62 v=0
240 On ch=1 n=74 v=64
359 On ch=1 n=74 v=0
480 On ch=1 n=69 v=64
659 On ch=1 n=69 v=0
840 On ch=1 n=68 v=64
953 On ch=1 n=68 v=0
1080 On ch=1 n=67 v=64
1199 On ch=1 n=67 v=0
1320 On ch=1 n=65 v=64
1547 On ch=1 n=65 v=0
1560 On ch=1 n=62 v=64
1673 On ch=1 n=62 v=0
1680 On ch=1 n=65 v=64
1793 On ch=1 n=65 v=0
1800 On ch=1 n=67 v=64
1913 On ch=1 n=67 v=0
1920 On ch=1 n=60 v=64
2033 On ch=1 n=60 v=0
2040 On ch=1 n=60 v=64
2153 On ch=1 n=60 v=0
2160 On ch=1 n=74 v=64
2279 On ch=1 n=74 v=0
2400 On ch=1 n=69 v=64
2579 On ch=1 n=69 v=0
2760 On ch=1 n=68 v=64
2873 On ch=1 n=68 v=0
3000 On ch=1 n=67 v=64
3119 On ch=1 n=67 v=0
3240 On ch=1 n=65 v=64
3467 On ch=1 n=65 v=0
3480 On ch=1 n=62 v=64
3593 On ch=1 n=62 v=0
3600 On ch=1 n=65 v=64
3713 On ch=1 n=65 v=0
3720 On ch=1 n=67 v=64
3833 On ch=1 n=67 v=0
3840 On ch=1 n=59 v=64
3953 On ch=1 n=59 v=0
3960 On ch=1 n=59 v=64
4073 On ch=1 n=59 v=0
4080 On ch=1 n=74 v=64
4199 On ch=1 n=74 v=0
4320 On ch=1 n=69 v=64
4499 On ch=1 n=69 v=0
4680 On ch=1 n=68 v=64
4793 On ch=1 n=68 v=0
4920 On ch=1 n=67 v=64
5039 On ch=1 n=67 v=0
5160 On ch=1 n=65 v=64
5387 On ch=1 n=65 v=0
5400 On ch=1 n=62 v=64
5513 On ch=1 n=62 v=0
5520 On ch=1 n=65 v=64
5633 On ch=1 n=65 v=0
5640 On ch=1 n=67 v=64
5753 On ch=1 n=67 v=0
5760 On ch=1 n=58 v=64
5873 On ch=1 n=58 v=0
5880 On ch=1 n=58 v=64
5993 On ch=1 n=58 v=0
6000 On ch=1 n=74 v=64
6119 On ch=1 n=74 v=0
6240 On ch=1 n=69 v=64
6419 On ch=1 n=69 v=0
6600 On ch=1 n=68 v=64
6713 On ch=1 n=68 v=0
6840 On ch=1 n=67 v=64
6959 On ch=1 n=67 v=0
7080 On ch=1 n=65 v=64
7307 On ch=1 n=65 v=0
7320 On ch=1 n=62 v=64
7433 On ch=1 n=62 v=0
7440 On ch=1 n=65 v=64
7553 On ch=1 n=65 v=0
7560 On ch=1 n=67 v=64
7673 On ch=1 n=67 v=0
7680 On ch=1 n=62 v=64
7793 On ch=1 n=62 v=0
7800 On ch=1 n=62 v=64
7913 On ch=1 n=62 v=0
7920 On ch=1 n=74 v=64
8039 On ch=1 n=74 v=0
8160 On ch=1 n=69 v=64
8339 On ch=1 n=69 v=0
8520 On ch=1 n=68 v=64
8633 On ch=1 n=68 v=0
8760 On ch=1 n=67 v=64
8879 On ch=1 n=67 v=0
9000 On ch=1 n=65 v=64
9227 On ch=1 n=65 v=0
9240 On ch=1 n=62 v=64
9353 On ch=1 n=62 v=0
9360 On ch=1 n=65 v=64
9473 On ch=1 n=65 v=0
9480 On ch=1 n=67 v=64
9593 On ch=1 n=67 v=0
9600 On ch=1 n=60 v=64
9713 On ch=1 n=60 v=0
9720 On ch=1 n=60 v=64
9833 On ch=1 n=60 v=0
9840 On ch=1 n=74 v=64
9959 On ch=1 n=74 v=0
10080 On ch=1 n=69 v=64
10259 On ch=1 n=69 v=0
10440 On ch=1 n=68 v=64
10553 On ch=1 n=68 v=0
10680 On ch=1 n=67 v=64
10799 On ch=1 n=67 v=0
10920 On ch=1 n=65 v=64
11147 On ch=1 n=65 v=0
11160 On ch=1 n=62 v=64
11273 On ch=1 n=62 v=0
11280 On ch=1 n=65 v=64
11393 On ch=1 n=65 v=0
11400 On ch=1 n=67 v=64
11513 On ch=1 n=67 v=0
11520 On ch=1 n=59 v=64
11633 On ch=1 n=59 v=0
11640 On ch=1 n=59 v=64
11753 On ch=1 n=59 v=0
11760 On ch=1 n=74 v=64
11879 On ch=1 n=74 v=0
12000 On ch=1 n=69 v=64
12179 On ch=1 n=69 v=0
12360 On ch=1 n=68 v=64
12473 On ch=1 n=68 v=0
12600 On ch=1 n=67 v=64
12719 On ch=1 n=67 v=0
12840 On ch=1 n=65 v=64
13067 On ch=1 n=65 v=0
13080 On ch=1 n=62 v=64
13193 On ch=1 n=62 v=0
13200 On ch=1 n=65 v=64
13313 On ch=1 n=65 v=0
13320 On ch=1 n=67 v=64
13433 On ch=1 n=67 v=0
13440 On ch=1 n=58 v=64
13553 On ch=1 n=58 v=0
13560 On ch=1 n=58 v=64
13673 On ch=1 n=58 v=0
13680 On ch=1 n=74 v=64
13799 On ch=1 n=74 v=0
13920 On ch=1 n=69 v=64
14099 On ch=1 n=69 v=0
14280 On ch=1 n=68 v=64
14393 On ch=1 n=68 v=0
14520 On ch=1 n=67 v=64
14639 On ch=1 n=67 v=0
14760 On ch=1 n=65 v=64
14987 On ch=1 n=65 v=0
15000 On ch=1 n=62 v=64
15113 On ch=1 n=62 v=0
15120 On ch=1 n=65 v=64
15233 On ch=1 n=65 v=0
15240 On ch=1 n=67 v=64
15353 On ch=1 n=67 v=0
15360 On ch=1 n=62 v=96
15360 On ch=1 n=74 v=96
15473 On ch=1 n=62 v=0
15473 On ch=1 n=74 v=0
15480 On ch=1 n=62 v=96
15480 On ch=1 n=74 v=96
15593 On ch=1 n=62 v=0
15593 On ch=1 n=74 v=0
15600 On ch=1 n=74 v=96
15600 On ch=1 n=86 v=96
15719 On ch=1 n=74 v=0
15719 On ch=1 n=86 v=0
15840 On ch=1 n=69 v=96
15840 On ch=1 n=81 v=96
16019 On ch=1 n=69 v=0
16019 On ch=1 n=81 v=0
16200 On ch=1 n=68 v=96
16200 On ch=1 n=80 v=96
16313 On ch=1 n=68 v=0
16313 On ch=1 n=80 v=0
16440 On ch=1 n=67 v=96
16440 On ch=1 n=79 v=96
16559 On ch=1 n=67 v=0
16559 On ch=1 n=79 v=0
16680 On ch=1 n=65 v=96
16680 On ch=1 n=77 v=96
16907 On ch=1 n=65 v=0
16907 On ch=1 n=77 v=0
16920 On ch=1 n=62 v=96
16920 On ch=1 n=74 v=96
17033 On ch=1 n=62 v=0
17033 On ch=1 n=74 v=0
17040 On ch=1 n=65 v=96
17040 On ch=1 n=77 v=96
17153 On ch=1 n=65 v=0
17153 On ch=1 n=77 v=0
17160 On ch=1 n=67 v=96
17160 On ch=1 n=79 v=96
17273 On ch=1 n=67 v=0
17273 On ch=1 n=79 v=0
17280 On ch=1 n=60 v=96
17280 On ch=1 n=72 v=96
17393 On ch=1 n=60 v=0
17393 On ch=1 n=72 v=0
17400 On ch=1 n=60 v=96
17400 On ch=1 n=72 v=96
17513 On ch=1 n=60 v=0
17513 On ch=1 n=72 v=0
17520 On ch=1 n=74 v=96
17520 On ch=1 n=86 v=96
17639 On ch=1 n=74 v=0
17639 On ch=1 n=86 v=0
17760 On ch=1 n=69 v=96
17760 On ch=1 n=81 v=96
17939 On ch=1 n=69 v=0
17939 On ch=1 n=81 v=0
18120 On ch=1 n=68 v=96
18120 On ch=1 n=80 v=96
18233 On ch=1 n=68 v=0
18233 On ch=1 n=80 v=0
18360 On ch=1 n=67 v=96
18360 On ch=1 n=79 v=96
18479 On ch=1 n=67 v=0
18479 On ch=1 n=79 v=0
18600 On ch=1 n=65 v=96
18600 On ch=1 n=77 v=96
18827 On ch=1 n=65 v=0
18827 On ch=1 n=77 v=0
18840 On ch=1 n=62 v=96
18840 On ch=1 n=74 v=96
18953 On ch=1 n=62 v=0
18953 On ch=1 n=74 v=0
18960 On ch=1 n=65 v=96
18960 On ch=1 n=77 v=96
19073 On ch=1 n=65 v=0
19073 On ch=1 n=77 v=0
19080 On ch=1 n=67 v=96
19080 On ch=1 n=79 v=96
19193 On ch=1 n=67 v=0
19193 On ch=1 n=79 v=0
19200 On ch=1 n=59 v=96
19200 On ch=1 n=71 v=96
19313 On ch=1 n=59 v=0
19313 On ch=1 n=71 v=0
19320 On ch=1 n=59 v=96
19320 On ch=1 n=71 v=96
19433 On ch=1 n=59 v=0
19433 On ch=1 n=71 v=0
19440 On ch=1 n=74 v=96
19440 On ch=1 n=86 v=96
19559 On ch=1 n=74 v=0
19559 On ch=1 n=86 v=0
19680 On ch=1 n=69 v=96
19680 On ch=1 n=81 v=96
19859 On ch=1 n=69 v=0
19859 On ch=1 n=81 v=0
20040 On ch=1 n=68 v=96
20040 On ch=1 n=80 v=96
20153 On ch=1 n=68 v=0
20153 On ch=1 n=80 v=0
20280 On ch=1 n=67 v=96
20280 On ch=1 n=79 v=96
20399 On ch=1 n=67 v=0
20399 On ch=1 n=79 v=0
20520 On ch=1 n=65 v=96
20520 On ch=1 n=77 v=96
20747 On ch=1 n=65 v=0
20747 On ch=1 n=77 v=0
20760 On ch=1 n=62 v=96
20760 On ch=1 n=74 v=96
20873 On ch=1 n=62 v=0
20873 On ch=1 n=74 v=0
20880 On ch=1 n=65 v=96
20880 On ch=1 n=77 v=96
20993 On ch=1 n=65 v=0
20993 On ch=1 n=77 v=0
21000 On ch=1 n=67 v=96
21000 On ch=1 n=79 v=96
21113 On ch=1 n=67 v=0
21113 On ch=1 n=79 v=0
21120 On ch=1 n=58 v=96
21120 On ch=1 n=70 v=96
21233 On ch=1 n=58 v=0
21233 On ch=1 n=70 v=0
21240 On ch=1 n=58 v=96
21240 On ch=1 n=70 v=96
21353 On ch=1 n=58 v=0
21353 On ch=1 n=70 v=0
21360 On ch=1 n=74 v=96
21360 On ch=1 n=86 v=96
21479 On ch=1 n=74 v=0
21479 On ch=1 n=86 v=0
21600 On ch=1 n=69 v=96
21600 On ch=1 n=81 v=96
21779 On ch=1 n=69 v=0
21779 On ch=1 n=81 v=0
21960 On ch=1 n=68 v=96
21960 On ch=1 n=80 v=96
22073 On ch=1 n=68 v=0
22073 On ch=1 n=80 v=0
22200 On ch=1 n=67 v=96
22200 On ch=1 n=79 v=96
22319 On ch=1 n=67 v=0
22319 On ch=1 n=79 v=0
22440 On ch=1 n=65 v=96
22440 On ch=1 n=77 v=96
22667 On ch=1 n=65 v=0
22667 On ch=1 n=77 v=0
22680 On ch=1 n=62 v=96
22680 On ch=1 n=74 v=96
22793 On ch=1 n=62 v=0
22793 On ch=1 n=74 v=0
22800 On ch=1 n=65 v=96
22800 On ch=1 n=77 v=96
22913 On ch=1 n=65 v=0
22913 On ch=1 n=77 v=0
22920 On ch=1 n=67 v=96
22920 On ch=1 n=79 v=96
23033 On ch=1 n=67 v=0
23033 On ch=1 n=79 v=0
23040 On ch=1 n=62 v=96
23040 On ch=1 n=74 v=96
23153 On ch=1 n=62 v=0
23153 On ch=1 n=74 v=0
23160 On ch=1 n=62 v=96
23160 On ch=1 n=74 v=96
23273 On ch=1 n=62 v=0
23273 On ch=1 n=74 v=0
23280 On ch=1 n=74 v=96
23280 On ch=1 n=86 v=96
23399 On ch=1 n=74 v=0
23399 On ch=1 n=86 v=0
23520 On ch=1 n=69 v=96
23520 On ch=1 n=81 v=96
23699 On ch=1 n=69 v=0
23699 On ch=1 n=81 v=0
23880 On ch=1 n=68 v=96
23880 On ch=1 n=80 v=96
23993 On ch=1 n=68 v=0
23993 On ch=1 n=80 v=0
24120 On ch=1 n=67 v=96
24120 On ch=1 n=79 v=96
24239 On ch=1 n=67 v=0
24239 On ch=1 n=79 v=0
24360 On ch=1 n=65 v=96
24360 On ch=1 n=77 v=96
24587 On ch=1 n=65 v=0
24587 On ch=1 n=77 v=0
24600 On ch=1 n=62 v=96
24600 On ch=1 n=74 v=96
24713 On ch=1 n=62 v=0
24713 On ch=1 n=74 v=0
24720 On ch=1 n=65 v=96
24720 On ch=1 n=77 v=96
24833 On ch=1 n=65 v=0
24833 On ch=1 n=77 v=0
24840 On ch=1 n=67 v=96
24840 On ch=1 n=79 v=96
24953 On ch=1 n=67 v=0
24953 On ch=1 n=79 v=0
24960 On ch=1 n=60 v=96
24960 On ch=1 n=72 v=96
25073 On ch=1 n=60 v=0
25073 On ch=1 n=72 v=0
25080 On ch=1 n=60 v=96
25080 On ch=1 n=72 v=96
25193 On ch=1 n=60 v=0
25193 On ch=1 n=72 v=0
25200 On ch=1 n=74 v=96
25200 On ch=1 n=86 v=96
25319 On ch=1 n=74 v=0
25319 On ch=1 n=86 v=0
25440 On ch=1 n=69 v=96
25440 On ch=1 n=81 v=96
25619 On ch=1 n=69 v=0
25619 On ch=1 n=81 v=0
25800 On ch=1 n=68 v=96
25800 On ch=1 n=80 v=96
25913 On ch=1 n=68 v=0
25913 On ch=1 n=80 v=0
26040 On ch=1 n=67 v=96
26040 On ch=1 n=79 v=96
26159 On ch=1 n=67 v=0
26159 On ch=1 n=79 v=0
26280 On ch=1 n=65 v=96
26280 On ch=1 n=77 v=96
26507 On ch=1 n=65 v=0
26507 On ch=1 n=77 v=0
26520 On ch=1 n=62 v=96
26520 On ch=1 n=74 v=96
26633 On ch=1 n=62 v=0
26633 On ch=1 n=74 v=0
26640 On ch=1 n=65 v=96
26640 On ch=1 n=77 v=96
26753 On ch=1 n=65 v=0
26753 On ch=1 n=77 v=0
26760 On ch=1 n=67 v=96
26760 On ch=1 n=79 v=96
26873 On ch=1 n=67 v=0
26873 On ch=1 n=79 v=0
26880 On ch=1 n=59 v=96
26880 On ch=1 n=71 v=96
26993 On ch=1 n=59 v=0
26993 On ch=1 n=71 v=0
27000 On ch=1 n=59 v=96
27000 On ch=1 n=71 v=96
27113 On ch=1 n=59 v=0
27113 On ch=1 n=71 v=0
27120 On ch=1 n=74 v=96
27120 On ch=1 n=86 v=96
27239 On ch=1 n=74 v=0
27239 On ch=1 n=86 v=0
27360 On ch=1 n=69 v=96
27360 On ch=1 n=81 v=96
27539 On ch=1 n=69 v=0
27539 On ch=1 n=81 v=0
27720 On ch=1 n=68 v=96
27720 On ch=1 n=80 v=96
27833 On ch=1 n=68 v=0
27833 On ch=1 n=80 v=0
27960 On ch=1 n=67 v=96
27960 On ch=1 n=79 v=96
28079 On ch=1 n=67 v=0
28079 On ch=1 n=79 v=0
28200 On ch=1 n=65 v=96
28200 On ch=1 n=77 v=96
28427 On ch=1 n=65 v=0
28427 On ch=1 n=77 v=0
28440 On ch=1 n=62 v=96
28440 On ch=1 n=74 v=96
28553 On ch=1 n=62 v=0
28553 On ch=1 n=74 v=0
28560 On ch=1 n=65 v=96
28560 On ch=1 n=77 v=96
28673 On ch=1 n=65 v=0
28673 On ch=1 n=77 v=0
28680 On ch=1 n=67 v=96
28680 On ch=1 n=79 v=96
28793 On ch=1 n=67 v=0
28793 On ch=1 n=79 v=0
28800 On ch=1 n=58 v=96
28800 On ch=1 n=70 v=96
28913 On ch=1 n=58 v=0
28913 On ch=1 n=70 v=0
28920 On ch=1 n=58 v=96
28920 On ch=1 n=70 v=96
29033 On ch=1 n=58 v=0
29033 On ch=1 n=70 v=0
29040 On ch=1 n=74 v=96
29040 On ch=1 n=86 v=96
29159 On ch=1 n=74 v=0
29159 On ch=1 n=86 v=0
29280 On ch=1 n=69 v=96
29280 On ch=1 n=81 v=96
29459 On ch=1 n=69 v=0
29459 On ch=1 n=81 v=0
29640 On ch=1 n=68 v=96
29640 On ch=1 n=80 v=96
29753 On ch=1 n=68 v=0
29753 On ch=1 n=80 v=0
29880 On ch=1 n=67 v=96
29880 On ch=1 n=79 v=96
29999 On ch=1 n=67 v=0
29999 On ch=1 n=79 v=0
30120 On ch=1 n=65 v=96
30120 On ch=1 n=77 v=96
30347 On ch=1 n=65 v=0
30347 On ch=1 n=77 v=0
30360 On ch=1 n=62 v=96
30360 On ch=1 n=74 v=96
30473 On ch=1 n=62 v=0
30473 On ch=1 n=74 v=0
30480 On ch=1 n=65 v=96
30480 On ch=1 n=77 v=96
30593 On ch=1 n=65 v=0
30593 On ch=1 n=77 v=0
30600 On ch=1 n=67 v=96
30600 On ch=1 n=79 v=96
30713 On ch=1 n=67 v=0
30713 On ch=1 n=79 v=0
30720 On ch=1 n=77 v=80
30947 On ch=1 n=77 v=0
30960 On ch=1 n=77 v=80
31073 On ch=1 n=77 v=0
31080 On ch=1 n=77 v=80
31193 On ch=1 n=77 v=0
31320 On ch=1 n=77 v=80
31439 On ch=1 n=77 v=0
31560 On ch=1 n=77 v=80
31787 On ch=1 n=77 v=0
31800 On ch=1 n=74 v=80
32027 On ch=1 n=74 v=0
32040 On ch=1 n=74 v=80
32609 On ch=1 n=74 v=0
32640 On ch=1 n=77 v=80
32867 On ch=1 n=77 v=0
32880 On ch=1 n=77 v=80
32993 On ch=1 n=77 v=0
33000 On ch=1 n=77 v=80
33113 On ch=1 n=77 v=0
33240 On ch=1 n=79 v=80
33359 On ch=1 n=79 v=0
33480 On ch=1 n=80 v=80
33707 On ch=1 n=80 v=0
33720 On ch=1 n=79 v=80
33757 On ch=1 n=79 v=0
33760 On ch=1 n=80 v=80
33797 On ch=1 n=80 v=0
33800 On ch=1 n=79 v=80
33837 On ch=1 n=79 v=0
33840 On ch=1 n=77 v=80
33953 On ch=1 n=77 v=0
33960 On ch=1 n=74 v=80
34073 On ch=1 n=74 v=0
34080 On ch=1 n=77 v=80
34193 On ch=1 n=77 v=0
34200 On ch=1 n=79 v=80
34313 On ch=1 n=79 v=0
34560 On ch=1 n=77 v=80
34787 On ch=1 n=77 v=0
34800 On ch=1 n=77 v=80
34913 On ch=1 n=77 v=0
34920 On ch=1 n=77 v=80
35033 On ch=1 n=77 v=0
35160 On ch=1 n=79 v=80
35279 On ch=1 n=79 v=0
35400 On ch=1 n=80 v=80
35513 On ch=1 n=80 v=0
35640 On ch=1 n=81 v=80
35759 On ch=1 n=81 v=0
35880 On ch=1 n=84 v=80
36107 On ch=1 n=84 v=0
36120 On ch=1 n=81 v=80
36461 On ch=1 n=81 v=0
36480 On ch=1 n=86 v=80
36599 On ch=1 n=86 v=0
36720 On ch=1 n=86 v=82
36839 On ch=1 n=86 v=0
36960 On ch=1 n=86 v=84
37073 On ch=1 n=86 v=0
37080 On ch=1 n=81 v=85
37193 On ch=1 n=81 v=0
37200 On ch=1 n=86 v=86
37313 On ch=1 n=86 v=0
37320 On ch=1 n=84 v=87
37889 On ch=1 n=84 v=0
37920 On ch=1 n=91 v=92
38375 On ch=1 n=91 v=0
38400 On ch=1 n=77 v=96
38400 On ch=1 n=81 v=96
38627 On ch=1 n=77 v=0
38627 On ch=1 n=81 v=0
38640 On ch=1 n=77 v=96
38640 On ch=1 n=81 v=96
38753 On ch=1 n=77 v=0
38753 On ch=1 n=81 v=0
38760 On ch=1 n=77 v=96
38760 On ch=1 n=81 v=96
38873 On ch=1 n=77 v=0
38873 On ch=1 n=81 v=0
39000 On ch=1 n=77 v=96
39000 On ch=1 n=81 v=96
39119 On ch=1 n=77 v=0
39119 On ch=1 n=81 v=0
39240 On ch=1 n=77 v=96
39240 On ch=1 n=81 v=96
39467 On ch=1 n=77 v=0
39467 On ch=1 n=81 v=0
39480 On ch=1 n=74 v=96
39480 On ch=1 n=79 v=96
39599 On ch=1 n=74 v=0
39599 On ch=1 n=79 v=0
39720 On ch=1 n=74 v=96
39720 On ch=1 n=79 v=96
40289 On ch=1 n=74 v=0
40289 On ch=1 n=79 v=0
40320 On ch=1 n=77 v=96
40320 On ch=1 n=81 v=96
40547 On ch=1 n=77 v=0
40547 On ch=1 n=81 v=0
40560 On ch=1 n=77 v=96
40560 On ch=1 n=81 v=96
40673 On ch=1 n=77 v=0
40673 On ch=1 n=81 v=0
40680 On ch=1 n=77 v=96
40680 On ch=1 n=81 v=96
40793 On ch=1 n=77 v=0
40793 On ch=1 n=81 v=0
40920 On ch=1 n=77 v=96
40920 On ch=1 n=81 v=96
41039 On ch=1 n=77 v=0
41039 On ch=1 n=81 v=0
41160 On ch=1 n=74 v=96
41160 On ch=1 n=79 v=96
41273 On ch=1 n=74 v=0
41273 On ch=1 n=79 v=0
41400 On ch=1 n=77 v=96
41400 On ch=1 n=81 v=96
41519 On ch=1 n=77 v=0
41519 On ch=1 n=81 v=0
41640 On ch=1 n=76 v=96
41640 On ch=1 n=86 v=96
41753 On ch=1 n=76 v=0
41753 On ch=1 n=86 v=0
41880 On ch=1 n=74 v=96
41880 On ch=1 n=81 v=96
41993 On ch=1 n=74 v=0
41993 On ch=1 n=81 v=0
42000 On ch=1 n=72 v=96
42000 On ch=1 n=79 v=96
42227 On ch=1 n=72 v=0
42227 On ch=1 n=79 v=0
42240 On ch=1 n=86 v=96
42240 On ch=1 n=83 v=96
42353 On ch=1 n=83 v=0
42360 On ch=1 n=79 v=96
42467 On ch=1 n=86 v=0
42473 On ch=1 n=79 v=0
42480 On ch=1 n=81 v=96
42480 On ch=1 n=74 v=96
42593 On ch=1 n=74 v=0
42600 On ch=1 n=76 v=96
42707 On ch=1 n=81 v=0
42713 On ch=1 n=76 v=0
42720 On ch=1 n=79 v=96
42720 On ch=1 n=77 v=96
42833 On ch=1 n=77 v=0
42840 On ch=1 n=74 v=96
42947 On ch=1 n=79 v=0
42953 On ch=1 n=74 v=0
42960 On ch=1 n=77 v=96
42960 On ch=1 n=71 v=96
43073 On ch=1 n=71 v=0
43080 On ch=1 n=74 v=96
43187 On ch=1 n=77 v=0
43193 On ch=1 n=74 v=0
43200 On ch=1 n=84 v=96
43320 On ch=1 n=74 v=96
43427 On ch=1 n=84 v=0
43433 On ch=1 n=74 v=0
43440 On ch=1 n=79 v=96
43440 On ch=1 n=71 v=96
43553 On ch=1 n=71 v=0
43560 On ch=1 n=74 v=96
43667 On ch=1 n=79 v=0
43673 On ch=1 n=74 v=0
43680 On ch=1 n=77 v=96
43680 On ch=1 n=71 v=96
43793 On ch=1 n=71 v=0
43800 On ch=1 n=67 v=96
43907 On ch=1 n=77 v=0
43913 On ch=1 n=67 v=0
43920 On ch=1 n=76 v=96
43920 On ch=1 n=71 v=96
44033 On ch=1 n=71 v=0
44040 On ch=1 n=67 v=96
44147 On ch=1 n=76 v=0
44153 On ch=1 n=67 v=0
44160 On ch=1 n=70 v=96
44387 On ch=1 n=70 v=0
44400 On ch=1 n=72 v=96
44513 On ch=1 n=72 v=0
44520 On ch=1 n=70 v=96
44520 On ch=1 n=74 v=96
44633 On ch=1 n=70 v=0
44633 On ch=1 n=74 v=0
44760 On ch=1 n=74 v=96
44760 On ch=1 n=77 v=96
44879 On ch=1 n=74 v=0
44879 On ch=1 n=77 v=0
45000 On ch=1 n=76 v=96
45000 On ch=1 n=84 v=96
46025 On ch=1 n=76 v=0
46025 On ch=1 n=84 v=0
47040 On ch=1 n=74 v=80
47040 On ch=1 n=77 v=80
47153 On ch=1 n=74 v=0
47153 On ch=1 n=77 v=0
47160 On ch=1 n=70 v=80
47160 On ch=1 n=74 v=80
47273 On ch=1 n=70 v=0
47273 On ch=1 n=74 v=0
47280 On ch=1 n=74 v=80
47280 On ch=1 n=77 v=80
47393 On ch=1 n=74 v=0
47393 On ch=1 n=77 v=0
47400 On ch=1 n=76 v=80
47400 On ch=1 n=79 v=80
47513 On ch=1 n=76 v=0
47513 On ch=1 n=79 v=0
47520 On ch=1 n=77 v=80
47520 On ch=1 n=80 v=80
47633 On ch=1 n=77 v=0
47633 On ch=1 n=80 v=0
47640 On ch=1 n=76 v=80
47640 On ch=1 n=79 v=80
47753 On ch=1 n=76 v=0
47753 On ch=1 n=79 v=0
47760 On ch=1 n=74 v=80
47760 On ch=1 n=77 v=80
47873 On ch=1 n=74 v=0
47873 On ch=1 n=77 v=0
47880 On ch=1 n=70 v=80
47880 On ch=1 n=74 v=80
47993 On ch=1 n=70 v=0
47993 On ch=1 n=74 v=0
48000 On ch=1 n=80 v=80
48056 On ch=1 n=80 v=0
48060 On ch=1 n=79 v=80
48116 On ch=1 n=79 v=0
48120 On ch=1 n=77 v=80
48176 On ch=1 n=77 v=0
48180 On ch=1 n=74 v=80
48236 On ch=1 n=74 v=0
48240 On ch=1 n=74 v=80
48240 On ch=1 n=77 v=80
48467 On ch=1 n=74 v=0
48467 On ch=1 n=77 v=0
48480 On ch=1 n=76 v=80
48480 On ch=1 n=79 v=80
49505 On ch=1 n=76 v=0
49505 On ch=1 n=79 v=0
49560 On ch=1 n=80 v=80
49787 On ch=1 n=80 v=0
49800 On ch=1 n=81 v=80
49913 On ch=1 n=81 v=0
49920 On ch=1 n=84 v=80
50039 On ch=1 n=84 v=0
50160 On ch=1 n=81 v=80
50273 On ch=1 n=81 v=0
50280 On ch=1 n=80 v=80
50393 On ch=1 n=80 v=0
50400 On ch=1 n=79 v=80
50513 On ch=1 n=79 v=0
50520 On ch=1 n=77 v=80
50633 On ch=1 n=77 v=0
50640 On ch=1 n=74 v=80
50753 On ch=1 n=74 v=0
50760 On ch=1 n=76 v=80
50873 On ch=1 n=76 v=0
50880 On ch=1 n=77 v=80
51107 On ch=1 n=77 v=0
51120 On ch=1 n=79 v=80
51347 On ch=1 n=79 v=0
51360 On ch=1 n=81 v=80
51587 On ch=1 n=81 v=0
51600 On ch=1 n=84 v=80
51827 On ch=1 n=84 v=0
51840 On ch=1 n=85 v=80
52067 On ch=1 n=85 v=0
52080 On ch=1 n=80 v=80
52199 On ch=1 n=80 v=0
52320 On ch=1 n=80 v=80
52433 On ch=1 n=80 v=0
52440 On ch=1 n=79 v=80
52553 On ch=1 n=79 v=0
52560 On ch=1 n=77 v=80
52673 On ch=1 n=77 v=0
52680 On ch=1 n=79 v=80
53705 On ch=1 n=79 v=0
53760 On ch=1 n=62 v=80
53760 On ch=1 n=65 v=80
53987 On ch=1 n=62 v=0
53987 On ch=1 n=65 v=0
54000 On ch=1 n=64 v=80
54000 On ch=1 n=67 v=80
54227 On ch=1 n=64 v=0
54227 On ch=1 n=67 v=0
54240 On ch=1 n=65 v=80
54240 On ch=1 n=69 v=80
54467 On ch=1 n=65 v=0
54467 On ch=1 n=69 v=0
54480 On ch=1 n=74 v=80
54480 On ch=1 n=77 v=80
54707 On ch=1 n=74 v=0
54707 On ch=1 n=77 v=0
54720 On ch=1 n=72 v=80
54720 On ch=1 n=76 v=80
55175 On ch=1 n=72 v=0
55175 On ch=1 n=76 v=0
55200 On ch=1 n=69 v=80
55200 On ch=1 n=74 v=80
55655 On ch=1 n=69 v=0
55655 On ch=1 n=74 v=0
55680 On ch=1 n=67 v=80
55680 On ch=1 n=76 v=80
56135 On ch=1 n=67 v=0
56135 On ch=1 n=76 v=0
56160 On ch=1 n=69 v=80
56160 On ch=1 n=77 v=80
56615 On ch=1 n=69 v=0
56615 On ch=1 n=77 v=0
56640 On ch=1 n=72 v=80
56640 On ch=1 n=79 v=80
57095 On ch=1 n=72 v=0
57095 On ch=1 n=79 v=0
57120 On ch=1 n=69 v=80
57120 On ch=1 n=76 v=80
57575 On ch=1 n=69 v=0
57575 On ch=1 n=76 v=0
57600 On ch=1 n=74 v=80
57600 On ch=1 n=81 v=80
58511 On ch=1 n=74 v=0
58511 On ch=1 n=81 v=0
58560 On ch=1 n=81 v=80
58673 On ch=1 n=81 v=0
58680 On ch=1 n=80 v=80
58793 On ch=1 n=80 v=0
58800 On ch=1 n=79 v=80
58913 On ch=1 n=79 v=0
58920 On ch=1 n=78 v=80
59033 On ch=1 n=78 v=0
59040 On ch=1 n=77 v=80
59153 On ch=1 n=77 v=0
59160 On ch=1 n=76 v=80
59273 On ch=1 n=76 v=0
59280 On ch=1 n=75 v=80
59393 On ch=1 n=75 v=0
59400 On ch=1 n=74 v=80
59513 On ch=1 n=74 v=0
59520 On ch=1 n=68 v=80
59520 On ch=1 n=73 v=80
60431 On ch=1 n=68 v=0
60431 On ch=1 n=73 v=0
60480 On ch=1 n=70 v=80
60480 On ch=1 n=75 v=80
61391 On ch=1 n=70 v=0
61391 On ch=1 n=75 v=0
62400 On ch=1 n=74 v=80
62400 On ch=1 n=77 v=80
62513 On ch=1 n=74 v=0
62513 On ch=1 n=77 v=0
62520 On ch=1 n=70 v=80
62520 On ch=1 n=74 v=80
62633 On ch=1 n=70 v=0
62633 On ch=1 n=74 v=0
62640 On ch=1 n=74 v=80
62640 On ch=1 n=77 v=80
62753 On ch=1 n=74 v=0
62753 On ch=1 n=77 v=0
62760 On ch=1 n=76 v=80
62760 On ch=1 n=79 v=80
62873 On ch=1 n=76 v=0
62873 On ch=1 n=79 v=0
62880 On ch=1 n=77 v=80
62880 On ch=1 n=80 v=80
62993 On ch=1 n=77 v=0
62993 On ch=1 n=80 v=0
63000 On ch=1 n=76 v=80
63000 On ch=1 n=79 v=80
63113 On ch=1 n=76 v=0
63113 On ch=1 n=79 v=0
63120 On ch=1 n=74 v=80
63120 On ch=1 n=77 v=80
63233 On ch=1 n=74 v=0
63233 On ch=1 n=77 v=0
63240 On ch=1 n=70 v=80
63240 On ch=1 n=74 v=80
63353 On ch=1 n=70 v=0
63353 On ch=1 n=74 v=0
63360 On ch=1 n=80 v=80
63416 On ch=1 n=80 v=0
63420 On ch=1 n=79 v=80
63476 On ch=1 n=79 v=0
63480 On ch=1 n=77 v=80
63536 On ch=1 n=77 v=0
63540 On ch=1 n=74 v=80
63596 On ch=1 n=74 v=0
63600 On ch=1 n=74 v=80
63600 On ch=1 n=77 v=80
63827 On ch=1 n=74 v=0
63827 On ch=1 n=77 v=0
63840 On ch=1 n=76 v=80
63840 On ch=1 n=79 v=80
64865 On ch=1 n=76 v=0
64865 On ch=1 n=79 v=0
64920 On ch=1 n=80 v=80
65147 On ch=1 n=80 v=0
65160 On ch=1 n=81 v=80
65273 On ch=1 n=81 v=0
65280 On ch=1 n=84 v=80
65399 On ch=1 n=84 v=0
65520 On ch=1 n=81 v=80
65633 On ch=1 n=81 v=0
65640 On ch=1 n=80 v=80
65753 On ch=1 n=80 v=0
65760 On ch=1 n=79 v=80
65873 On ch=1 n=79 v=0
65880 On ch=1 n=77 v=80
65993 On ch=1 n=77 v=0
66000 On ch=1 n=74 v=80
66113 On ch=1 n=74 v=0
66120 On ch=1 n=76 v=80
66233 On ch=1 n=76 v=0
66240 On ch=1 n=77 v=80
66467 On ch=1 n=77 v=0
66480 On ch=1 n=79 v=80
66707 On ch=1 n=79 v=0
66720 On ch=1 n=81 v=80
66947 On ch=1 n=81 v=0
66960 On ch=1 n=84 v=80
67187 On ch=1 n=84 v=0
67200 On ch=1 n=85 v=80
67427 On ch=1 n=85 v=0
67440 On ch=1 n=80 v=80
67559 On ch=1 n=80 v=0
67680 On ch=1 n=80 v=80
67793 On ch=1 n=80 v=0
67800 On ch=1 n=79 v=80
67913 On ch=1 n=79 v=0
67920 On ch=1 n=77 v=80
68033 On ch=1 n=77 v=0
68040 On ch=1 n=79 v=80
69065 On ch=1 n=79 v=0
69120 On ch=1 n=62 v=80
69120 On ch=1 n=65 v=80
69347 On ch=1 n=62 v=0
69347 On ch=1 n=65 v=0
69360 On ch=1 n=64 v=80
69360 On ch=1 n=67 v=80
69587 On ch=1 n=64 v=0
69587 On ch=1 n=67 v=0
69600 On ch=1 n=65 v=80
69600 On ch=1 n=69 v=80
69827 On ch=1 n=65 v=0
69827 On ch=1 n=69 v=0
69840 On ch=1 n=74 v=80
69840 On ch=1 n=77 v=80
70067 On ch=1 n=74 v=0
70067 On ch=1 n=77 v=0
70080 On ch=1 n=72 v=80
70080 On ch=1 n=76 v=80
70535 On ch=1 n=72 v=0
70535 On ch=1 n=76 v=0
70560 On ch=1 n=69 v=80
70560 On ch=1 n=74 v=80
71015 On ch=1 n=69 v=0
71015 On ch=1 n=74 v=0
71040 On ch=1 n=67 v=80
71040 On ch=1 n=76 v=80
71495 On ch=1 n=67 v=0
71495 On ch=1 n=76 v=0
71520 On ch=1 n=69 v=80
71520 On ch=1 n=77 v=80
71975 On ch=1 n=69 v=0
71975 On ch=1 n=77 v=0
72000 On ch=1 n=72 v=80
72000 On ch=1 n=79 v=80
72455 On ch=1 n=72 v=0
72455 On ch=1 n=79 v=0
72480 On ch=1 n=69 v=80
72480 On ch=1 n=76 v=80
72935 On ch=1 n=69 v=0
72935 On ch=1 n=76 v=0
72960 On ch=1 n=74 v=80
72960 On ch=1 n=81 v=80
73871 On ch=1 n=74 v=0
73871 On ch=1 n=81 v=0
73920 On ch=1 n=81 v=80
74033 On ch=1 n=81 v=0
74040 On ch=1 n=80 v=80
74153 On ch=1 n=80 v=0
74160 On ch=1 n=79 v=80
74273 On ch=1 n=79 v=0
74280 On ch=1 n=78 v=80
74393 On ch=1 n=78 v=0
74400 On ch=1 n=77 v=80
74513 On ch=1 n=77 v=0
74520 On ch=1 n=76 v=80
74633 On ch=1 n=76 v=0
74640 On ch=1 n=75 v=80
74753 On ch=1 n=75 v=0
74760 On ch=1 n=74 v=80
74873 On ch=1 n=74 v=0
74880 On ch=1 n=68 v=80
74880 On ch=1 n=73 v=80
75791 On ch=1 n=68 v=0
75791 On ch=1 n=73 v=0
75840 On ch=1 n=70 v=80
75840 On ch=1 n=75 v=80
76751 On ch=1 n=70 v=0
76751 On ch=1 n=75 v=0
76800 On ch=1 n=58 v=64
78167 On ch=1 n=58 v=0
78240 On ch=1 n=65 v=64
78695 On ch=1 n=65 v=0
78720 On ch=1 n=64 v=64
79631 On ch=1 n=64 v=0
79680 On ch=1 n=62 v=64
80591 On ch=1 n=62 v=0
80640 On ch=1 n=65 v=64
84287 On ch=1 n=65 v=0
84480 On ch=1 n=58 v=64
85847 On ch=1 n=58 v=0
85920 On ch=1 n=65 v=64
86375 On ch=1 n=65 v=0
86400 On ch=1 n=64 v=64
87311 On ch=1 n=64 v=0
87360 On ch=1 n=62 v=64
88271 On ch=1 n=62 v=0
88320 On ch=1 n=62 v=64
89231 On ch=1 n=62 v=0
89280 On ch=1 n=62 v=64
89355 On ch=1 n=62 v=0
89360 On ch=1 n=61 v=64
89435 On ch=1 n=61 v=0
89440 On ch=1 n=60 v=64
89515 On ch=1 n=60 v=0
89520 On ch=1 n=59 v=64
89595 On ch=1 n=59 v=0
89600 On ch=1 n=58 v=64
89675 On ch=1 n=58 v=0
89680 On ch=1 n=57 v=64
89755 On ch=1 n=57 v=0
89760 On ch=1 n=56 v=64
89835 On ch=1 n=56 v=0
89840 On ch=1 n=55 v=64
89915 On ch=1 n=55 v=0
89920 On ch=1 n=54 v=64
89995 On ch=1 n=54 v=0
90000 On ch=1 n=53 v=64
90075 On ch=1 n=53 v=0
90080 On ch=1 n=52 v=64
90155 On ch=1 n=52 v=0
90160 On ch=1 n=51 v=64
90235 On ch=1 n=51 v=0
90240 On ch=1 n=50 v=64
92063 On ch=1 n=50 v=0
92160 On ch=1 n=58 v=64
92160 On ch=1 n=50 v=64
92273 On ch=1 n=50 v=0
92280 On ch=1 n=50 v=64
92393 On ch=1 n=50 v=0
92400 On ch=1 n=62 v=64
92519 On ch=1 n=62 v=0
92640 On ch=1 n=57 v=64
92819 On ch=1 n=57 v=0
93000 On ch=1 n=56 v=64
93113 On ch=1 n=56 v=0
93240 On ch=1 n=55 v=64
93359 On ch=1 n=55 v=0
93480 On ch=1 n=53 v=64
93527 On ch=1 n=58 v=0
93600 On ch=1 n=65 v=64
93707 On ch=1 n=53 v=0
93720 On ch=1 n=50 v=64
93833 On ch=1 n=50 v=0
93840 On ch=1 n=53 v=64
93953 On ch=1 n=53 v=0
93960 On ch=1 n=55 v=64
94055 On ch=1 n=65 v=0
94073 On ch=1 n=55 v=0
94080 On ch=1 n=64 v=64
94080 On ch=1 n=48 v=64
94193 On ch=1 n=48 v=0
94200 On ch=1 n=48 v=64
94313 On ch=1 n=48 v=0
94320 On ch=1 n=62 v=64
94439 On ch=1 n=62 v=0
94560 On ch=1 n=57 v=64
94739 On ch=1 n=57 v=0
94920 On ch=1 n=56 v=64
94991 On ch=1 n=64 v=0
95033 On ch=1 n=56 v=0
95040 On ch=1 n=62 v=64
95160 On ch=1 n=55 v=64
95279 On ch=1 n=55 v=0
95400 On ch=1 n=53 v=64
95627 On ch=1 n=53 v=0
95640 On ch=1 n=50 v=64
95753 On ch=1 n=50 v=0
95760 On ch=1 n=53 v=64
95873 On ch=1 n=53 v=0
95880 On ch=1 n=55 v=64
95951 On ch=1 n=62 v=0
95993 On ch=1 n=55 v=0
96000 On ch=1 n=65 v=64
96000 On ch=1 n=47 v=64
96113 On ch=1 n=47 v=0
96120 On ch=1 n=47 v=64
96233 On ch=1 n=47 v=0
96240 On ch=1 n=62 v=64
96359 On ch=1 n=62 v=0
96480 On ch=1 n=57 v=64
96659 On ch=1 n=57 v=0
96840 On ch=1 n=56 v=64
96953 On ch=1 n=56 v=0
97080 On ch=1 n=55 v=64
97199 On ch=1 n=55 v=0
97320 On ch=1 n=53 v=64
97547 On ch=1 n=53 v=0
97560 On ch=1 n=50 v=64
97673 On ch=1 n=50 v=0
97680 On ch=1 n=53 v=64
97793 On ch=1 n=53 v=0
97800 On ch=1 n=55 v=64
97823 On ch=1 n=65 v=0
97913 On ch=1 n=55 v=0
97920 On ch=1 n=47 v=64
98033 On ch=1 n=47 v=0
98040 On ch=1 n=55 v=64
98153 On ch=1 n=55 v=0
98160 On ch=1 n=62 v=64
98160 On ch=1 n=65 v=64
98273 On ch=1 n=62 v=0
98273 On ch=1 n=65 v=0
98280 On ch=1 n=62 v=64
98393 On ch=1 n=62 v=0
98400 On ch=1 n=57 v=64
98400 On ch=1 n=67 v=64
98519 On ch=1 n=57 v=0
98519 On ch=1 n=67 v=0
98640 On ch=1 n=65 v=64
98753 On ch=1 n=65 v=0
98760 On ch=1 n=56 v=64
98760 On ch=1 n=60 v=64
98873 On ch=1 n=56 v=0
98873 On ch=1 n=60 v=0
98880 On ch=1 n=62 v=64
98993 On ch=1 n=62 v=0
99000 On ch=1 n=55 v=64
99000 On ch=1 n=60 v=64
99119 On ch=1 n=55 v=0
99119 On ch=1 n=60 v=0
99240 On ch=1 n=53 v=64
99240 On ch=1 n=57 v=64
99467 On ch=1 n=53 v=0
99467 On ch=1 n=57 v=0
99480 On ch=1 n=50 v=64
99480 On ch=1 n=55 v=64
99593 On ch=1 n=50 v=0
99593 On ch=1 n=55 v=0
99600 On ch=1 n=53 v=64
99600 On ch=1 n=57 v=64
99713 On ch=1 n=53 v=0
99713 On ch=1 n=57 v=0
99720 On ch=1 n=55 v=64
99720 On ch=1 n=60 v=64
99833 On ch=1 n=55 v=0
99833 On ch=1 n=60 v=0
99840 On ch=1 n=58 v=64
99840 On ch=1 n=50 v=64
99953 On ch=1 n=50 v=0
99960 On ch=1 n=50 v=65
100073 On ch=1 n=50 v=0
100080 On ch=1 n=62 v=66
100199 On ch=1 n=62 v=0
100320 On ch=1 n=57 v=68
100499 On ch=1 n=57 v=0
100680 On ch=1 n=56 v=71
100793 On ch=1 n=56 v=0
100920 On ch=1 n=55 v=73
101039 On ch=1 n=55 v=0
101160 On ch=1 n=53 v=75
101207 On ch=1 n=58 v=0
101280 On ch=1 n=65 v=76
101387 On ch=1 n=53 v=0
101400 On ch=1 n=50 v=77
101513 On ch=1 n=50 v=0
101520 On ch=1 n=53 v=78
101633 On ch=1 n=53 v=0
101640 On ch=1 n=55 v=79
101735 On ch=1 n=65 v=0
101753 On ch=1 n=55 v=0
101760 On ch=1 n=64 v=80
101760 On ch=1 n=48 v=80
101873 On ch=1 n=48 v=0
101880 On ch=1 n=48 v=81
101993 On ch=1 n=48 v=0
102000 On ch=1 n=62 v=82
102119 On ch=1 n=62 v=0
102240 On ch=1 n=57 v=84
102419 On ch=1 n=57 v=0
102600 On ch=1 n=56 v=87
102671 On ch=1 n=64 v=0
102713 On ch=1 n=56 v=0
102720 On ch=1 n=62 v=88
102840 On ch=1 n=55 v=89
102959 On ch=1 n=55 v=0
103080 On ch=1 n=53 v=91
103307 On ch=1 n=53 v=0
103320 On ch=1 n=50 v=93
103433 On ch=1 n=50 v=0
103440 On ch=1 n=53 v=94
103553 On ch=1 n=53 v=0
103560 On ch=1 n=55 v=95
103631 On ch=1 n=62 v=0
103673 On ch=1 n=55 v=0
103680 On ch=1 n=50 v=96
103680 On ch=1 n=62 v=96
103793 On ch=1 n=50 v=0
103793 On ch=1 n=62 v=0
103800 On ch=1 n=50 v=96
103913 On ch=1 n=50 v=0
103920 On ch=1 n=62 v=115
103920 On ch=1 n=65 v=115
104039 On ch=1 n=62 v=0
104039 On ch=1 n=65 v=0
104160 On ch=1 n=57 v=115
104160 On ch=1 n=64 v=115
104339 On ch=1 n=57 v=0
104339 On ch=1 n=64 v=0
104520 On ch=1 n=56 v=115
104520 On ch=1 n=60 v=115
104639 On ch=1 n=56 v=0
104639 On ch=1 n=60 v=0
104760 On ch=1 n=55 v=115
104760 On ch=1 n=64 v=115
104879 On ch=1 n=55 v=0
104879 On ch=1 n=64 v=0
105000 On ch=1 n=53 v=115
105000 On ch=1 n=62 v=115
105233 On ch=1 n=53 v=0
105233 On ch=1 n=62 v=0
105240 On ch=1 n=50 v=96
105240 On ch=1 n=55 v=96
105353 On ch=1 n=50 v=0
105353 On ch=1 n=55 v=0
105360 On ch=1 n=53 v=96
105360 On ch=1 n=57 v=96
105473 On ch=1 n=53 v=0
105473 On ch=1 n=57 v=0
105480 On ch=1 n=55 v=96
105480 On ch=1 n=60 v=96
105593 On ch=1 n=55 v=0
105593 On ch=1 n=60 v=0
105600 On ch=1 n=50 v=96
105713 On ch=1 n=50 v=0
105720 On ch=1 n=50 v=96
105833 On ch=1 n=50 v=0
105840 On ch=1 n=62 v=115
105840 On ch=1 n=65 v=115
105959 On ch=1 n=62 v=0
105959 On ch=1 n=65 v=0
106080 On ch=1 n=57 v=115
106080 On ch=1 n=64 v=115
106259 On ch=1 n=57 v=0
106259 On ch=1 n=64 v=0
106440 On ch=1 n=56 v=115
106440 On ch=1 n=60 v=115
106559 On ch=1 n=56 v=0
106559 On ch=1 n=60 v=0
106680 On ch=1 n=55 v=115
106680 On ch=1 n=64 v=115
106799 On ch=1 n=55 v=0
106799 On ch=1 n=64 v=0
106920 On ch=1 n=53 v=115
106920 On ch=1 n=62 v=115
107153 On ch=1 n=53 v=0
107153 On ch=1 n=62 v=0
107160 On ch=1 n=50 v=96
107160 On ch=1 n=55 v=96
107273 On ch=1 n=50 v=0
107273 On ch=1 n=55 v=0
107280 On ch=1 n=53 v=96
107280 On ch=1 n=57 v=96
107393 On ch=1 n=53 v=0
107393 On ch=1 n=57 v=0
107400 On ch=1 n=55 v=96
107400 On ch=1 n=60 v=96
107513 On ch=1 n=55 v=0
107513 On ch=1 n=60 v=0
107520 On ch=1 n=53 v=64
107520 On ch=1 n=58 v=64
107747 On ch=1 n=53 v=0
107747 On ch=1 n=58 v=0
107760 On ch=1 n=53 v=64
107760 On ch=1 n=58 v=64
107987 On ch=1 n=53 v=0
107987 On ch=1 n=58 v=0
108000 On ch=1 n=46 v=64
108113 On ch=1 n=46 v=0
108120 On ch=1 n=53 v=64
108120 On ch=1 n=58 v=64
108347 On ch=1 n=53 v=0
108347 On ch=1 n=58 v=0
108360 On ch=1 n=53 v=64
108360 On ch=1 n=58 v=64
108587 On ch=1 n=53 v=0
108587 On ch=1 n=58 v=0
108600 On ch=1 n=53 v=64
108600 On ch=1 n=58 v=64
108827 On ch=1 n=53 v=0
108827 On ch=1 n=58 v=0
108840 On ch=1 n=46 v=64
108953 On ch=1 n=46 v=0
108960 On ch=1 n=46 v=64
109073 On ch=1 n=46 v=0
109080 On ch=1 n=46 v=64
109193 On ch=1 n=46 v=0
109200 On ch=1 n=53 v=64
109200 On ch=1 n=58 v=64
109427 On ch=1 n=53 v=0
109427 On ch=1 n=58 v=0
109440 On ch=1 n=55 v=64
109440 On ch=1 n=60 v=64
109667 On ch=1 n=55 v=0
109667 On ch=1 n=60 v=0
109680 On ch=1 n=55 v=64
109680 On ch=1 n=60 v=64
109907 On ch=1 n=55 v=0
109907 On ch=1 n=60 v=0
109920 On ch=1 n=48 v=64
110033 On ch=1 n=48 v=0
110040 On ch=1 n=55 v=64
110040 On ch=1 n=60 v=64
110267 On ch=1 n=55 v=0
110267 On ch=1 n=60 v=0
110280 On ch=1 n=55 v=64
110280 On ch=1 n=60 v=64
110507 On ch=1 n=55 v=0
110507 On ch=1 n=60 v=0
110520 On ch=1 n=55 v=64
110520 On ch=1 n=60 v=64
110747 On ch=1 n=55 v=0
110747 On ch=1 n=60 v=0
110760 On ch=1 n=48 v=64
110873 On ch=1 n=48 v=0
110880 On ch=1 n=48 v=64
110993 On ch=1 n=48 v=0
111000 On ch=1 n=48 v=64
111113 On ch=1 n=48 v=0
111120 On ch=1 n=55 v=64
111120 On ch=1 n=60 v=64
111347 On ch=1 n=55 v=0
111347 On ch=1 n=60 v=0
111360 On ch=1 n=57 v=64
111360 On ch=1 n=62 v=64
111587 On ch=1 n=57 v=0
111587 On ch=1 n=62 v=0
111600 On ch=1 n=57 v=64
111600 On ch=1 n=62 v=64
111827 On ch=1 n=57 v=0
111827 On ch=1 n=62 v=0
111840 On ch=1 n=50 v=64
111953 On ch=1 n=50 v=0
111960 On ch=1 n=57 v=64
111960 On ch=1 n=62 v=64
112187 On ch=1 n=57 v=0
112187 On ch=1 n=62 v=0
112200 On ch=1 n=56 v=64
112200 On ch=1 n=61 v=64
112427 On ch=1 n=56 v=0
112427 On ch=1 n=61 v=0
112440 On ch=1 n=56 v=64
112440 On ch=1 n=61 v=64
112667 On ch=1 n=56 v=0
112667 On ch=1 n=61 v=0
112680 On ch=1 n=49 v=64
112793 On ch=1 n=49 v=0
112800 On ch=1 n=49 v=64
112913 On ch=1 n=49 v=0
112920 On ch=1 n=49 v=64
113033 On ch=1 n=49 v=0
113040 On ch=1 n=56 v=64
113040 On ch=1 n=61 v=64
113267 On ch=1 n=56 v=0
113267 On ch=1 n=61 v=0
113280 On ch=1 n=55 v=64
113280 On ch=1 n=60 v=64
113507 On ch=1 n=55 v=0
113507 On ch=1 n=60 v=0
113520 On ch=1 n=55 v=64
113520 On ch=1 n=60 v=64
113747 On ch=1 n=55 v=0
113747 On ch=1 n=60 v=0
113760 On ch=1 n=48 v=64
113873 On ch=1 n=48 v=0
113880 On ch=1 n=55 v=64
113880 On ch=1 n=60 v=64
114107 On ch=1 n=55 v=0
114107 On ch=1 n=60 v=0
114120 On ch=1 n=54 v=64
114120 On ch=1 n=59 v=64
114347 On ch=1 n=54 v=0
114347 On ch=1 n=59 v=0
114360 On ch=1 n=54 v=64
114360 On ch=1 n=59 v=64
114587 On ch=1 n=54 v=0
114587 On ch=1 n=59 v=0
114600 On ch=1 n=47 v=64
114713 On ch=1 n=47 v=0
114720 On ch=1 n=47 v=64
114833 On ch=1 n=47 v=0
114840 On ch=1 n=47 v=64
114953 On ch=1 n=47 v=0
114960 On ch=1 n=54 v=64
114960 On ch=1 n=59 v=64
115187 On ch=1 n=54 v=0
115187 On ch=1 n=59 v=0
115200 On ch=1 n=53 v=64
115200 On ch=1 n=58 v=64
115427 On ch=1 n=53 v=0
115427 On ch=1 n=58 v=0
115440 On ch=1 n=53 v=64
115440 On ch=1 n=58 v=64
115667 On ch=1 n=53 v=0
115667 On ch=1 n=58 v=0
115680 On ch=1 n=46 v=64
115793 On ch=1 n=46 v=0
115800 On ch=1 n=53 v=64
115800 On ch=1 n=58 v=64
116027 On ch=1 n=53 v=0
116027 On ch=1 n=58 v=0
116040 On ch=1 n=53 v=64
116040 On ch=1 n=58 v=64
116267 On ch=1 n=53 v=0
116267 On ch=1 n=58 v=0
116280 On ch=1 n=53 v=64
116280 On ch=1 n=58 v=64
116507 On ch=1 n=53 v=0
116507 On ch=1 n=58 v=0
116520 On ch=1 n=46 v=64
116633 On ch=1 n=46 v=0
116640 On ch=1 n=46 v=64
116753 On ch=1 n=46 v=0
116760 On ch=1 n=46 v=64
116873 On ch=1 n=46 v=0
116880 On ch=1 n=53 v=64
116880 On ch=1 n=58 v=64
117107 On ch=1 n=53 v=0
117107 On ch=1 n=58 v=0
117120 On ch=1 n=55 v=64
117120 On ch=1 n=60 v=64
117347 On ch=1 n=55 v=0
117347 On ch=1 n=60 v=0
117360 On ch=1 n=55 v=64
117360 On ch=1 n=60 v=64
117587 On ch=1 n=55 v=0
117587 On ch=1 n=60 v=0
117600 On ch=1 n=48 v=64
117713 On ch=1 n=48 v=0
117720 On ch=1 n=55 v=64
117720 On ch=1 n=60 v=64
117947 On ch=1 n=55 v=0
117947 On ch=1 n=60 v=0
117960 On ch=1 n=55 v=64
117960 On ch=1 n=60 v=64
118187 On ch=1 n=55 v=0
118187 On ch=1 n=60 v=0
118200 On ch=1 n=55 v=64
118200 On ch=1 n=60 v=64
118427 On ch=1 n=55 v=0
118427 On ch=1 n=60 v=0
118440 On ch=1 n=48 v=64
118553 On ch=1 n=48 v=0
118560 On ch=1 n=48 v=64
118673 On ch=1 n=48 v=0
118680 On ch=1 n=48 v=64
118793 On ch=1 n=48 v=0
118800 On ch=1 n=55 v=64
118800 On ch=1 n=60 v=64
119027 On ch=1 n=55 v=0
119027 On ch=1 n=60 v=0
119040 On ch=1 n=57 v=64
119040 On ch=1 n=62 v=64
119267 On ch=1 n=57 v=0
119267 On ch=1 n=62 v=0
119280 On ch=1 n=57 v=64
119280 On ch=1 n=62 v=64
119507 On ch=1 n=57 v=0
119507 On ch=1 n=62 v=0
119520 On ch=1 n=50 v=64
119633 On ch=1 n=50 v=0
119640 On ch=1 n=57 v=64
119640 On ch=1 n=62 v=64
119867 On ch=1 n=57 v=0
119867 On ch=1 n=62 v=0
119880 On ch=1 n=57 v=64
119880 On ch=1 n=62 v=64
120107 On ch=1 n=57 v=0
120107 On ch=1 n=62 v=0
120120 On ch=1 n=57 v=64
120120 On ch=1 n=62 v=64
120347 On ch=1 n=57 v=0
120347 On ch=1 n=62 v=0
120360 On ch=1 n=50 v=64
120473 On ch=1 n=50 v=0
120480 On ch=1 n=50 v=64
120593 On ch=1 n=50 v=0
120600 On ch=1 n=50 v=64
120713 On ch=1 n=50 v=0
120720 On ch=1 n=57 v=64
120720 On ch=1 n=62 v=64
120947 On ch=1 n=57 v=0
120947 On ch=1 n=62 v=0
120960 On ch=1 n=57 v=64
120960 On ch=1 n=62 v=64
121187 On ch=1 n=57 v=0
121187 On ch=1 n=62 v=0
121200 On ch=1 n=57 v=64
121200 On ch=1 n=62 v=64
121427 On ch=1 n=57 v=0
121427 On ch=1 n=62 v=0
121440 On ch=1 n=50 v=64
121553 On ch=1 n=50 v=0
121560 On ch=1 n=57 v=64
121560 On ch=1 n=62 v=64
121787 On ch=1 n=57 v=0
121787 On ch=1 n=62 v=0
121800 On ch=1 n=57 v=64
121800 On ch=1 n=62 v=64
122027 On ch=1 n=57 v=0
122027 On ch=1 n=62 v=0
122040 On ch=1 n=57 v=64
122040 On ch=1 n=62 v=64
122267 On ch=1 n=57 v=0
122267 On ch=1 n=62 v=0
122280 On ch=1 n=50 v=64
122393 On ch=1 n=50 v=0
122400 On ch=1 n=50 v=64
122513 On ch=1 n=50 v=0
122520 On ch=1 n=50 v=64
122633 On ch=1 n=50 v=0
122640 On ch=1 n=57 v=64
122640 On ch=1 n=62 v=64
122867 On ch=1 n=57 v=0
122867 On ch=1 n=62 v=0
122880 On ch=1 n=53 v=64
122880 On ch=1 n=58 v=64
123107 On ch=1 n=53 v=0
123107 On ch=1 n=58 v=0
123120 On ch=1 n=53 v=64
123120 On ch=1 n=58 v=64
123347 On ch=1 n=53 v=0
123347 On ch=1 n=58 v=0
123360 On ch=1 n=46 v=64
123473 On ch=1 n=46 v=0
123480 On ch=1 n=53 v=64
123480 On ch=1 n=58 v=64
123707 On ch=1 n=53 v=0
123707 On ch=1 n=58 v=0
123720 On ch=1 n=53 v=64
123720 On ch=1 n=58 v=64
123947 On ch=1 n=53 v=0
123947 On ch=1 n=58 v=0
123960 On ch=1 n=53 v=64
123960 On ch=1 n=58 v=64
124187 On ch=1 n=53 v=0
124187 On ch=1 n=58 v=0
124200 On ch=1 n=46 v=64
124313 On ch=1 n=46 v=0
124320 On ch=1 n=46 v=64
124433 On ch=1 n=46 v=0
124440 On ch=1 n=46 v=64
124553 On ch=1 n=46 v=0
124560 On ch=1 n=53 v=64
124560 On ch=1 n=58 v=64
124787 On ch=1 n=53 v=0
124787 On ch=1 n=58 v=0
124800 On ch=1 n=55 v=64
124800 On ch=1 n=60 v=64
125027 On ch=1 n=55 v=0
125027 On ch=1 n=60 v=0
125040 On ch=1 n=55 v=64
125040 On ch=1 n=60 v=64
125267 On ch=1 n=55 v=0
125267 On ch=1 n=60 v=0
125280 On ch=1 n=48 v=64
125393 On ch=1 n=48 v=0
125400 On ch=1 n=55 v=64
125400 On ch=1 n=60 v=64
125627 On ch=1 n=55 v=0
125627 On ch=1 n=60 v=0
125640 On ch=1 n=55 v=64
125640 On ch=1 n=60 v=64
125867 On ch=1 n=55 v=0
125867 On ch=1 n=60 v=0
125880 On ch=1 n=55 v=64
125880 On ch=1 n=60 v=64
126107 On ch=1 n=55 v=0
126107 On ch=1 n=60 v=0
126120 On ch=1 n=48 v=64
126233 On ch=1 n=48 v=0
126240 On ch=1 n=48 v=64
126353 On ch=1 n=48 v=0
126360 On ch=1 n=48 v=64
126473 On ch=1 n=48 v=0
126480 On ch=1 n=55 v=64
126480 On ch=1 n=60 v=64
126707 On ch=1 n=55 v=0
126707 On ch=1 n=60 v=0
126720 On ch=1 n=57 v=64
126720 On ch=1 n=62 v=64
126947 On ch=1 n=57 v=0
126947 On ch=1 n=62 v=0
126960 On ch=1 n=57 v=64
126960 On ch=1 n=62 v=64
127187 On ch=1 n=57 v=0
127187 On ch=1 n=62 v=0
127200 On ch=1 n=50 v=64
127313 On ch=1 n=50 v=0
127320 On ch=1 n=57 v=64
127320 On ch=1 n=62 v=64
127547 On ch=1 n=57 v=0
127547 On ch=1 n=62 v=0
127560 On ch=1 n=56 v=64
127560 On ch=1 n=61 v=64
127787 On ch=1 n=56 v=0
127787 On ch=1 n=61 v=0
127800 On ch=1 n=56 v=64
127800 On ch=1 n=61 v=64
128027 On ch=1 n=56 v=0
128027 On ch=1 n=61 v=0
128040 On ch=1 n=49 v=64
128153 On ch=1 n=49 v=0
128160 On ch=1 n=49 v=64
128273 On ch=1 n=49 v=0
128280 On ch=1 n=49 v=64
128393 On ch=1 n=49 v=0
128400 On ch=1 n=56 v=64
128400 On ch=1 n=61 v=64
128627 On ch=1 n=56 v=0
128627 On ch=1 n=61 v=0
128640 On ch=1 n=55 v=64
128640 On ch=1 n=60 v=64
128867 On ch=1 n=55 v=0
128867 On ch=1 n=60 v=0
128880 On ch=1 n=55 v=64
128880 On ch=1 n=60 v=64
129107 On ch=1 n=55 v=0
129107 On ch=1 n=60 v=0
129120 On ch=1 n=48 v=64
129233 On ch=1 n=48 v=0
129240 On ch=1 n=55 v=64
129240 On ch=1 n=60 v=64
129467 On ch=1 n=55 v=0
129467 On ch=1 n=60 v=0
129480 On ch=1 n=54 v=64
129480 On ch=1 n=59 v=64
129707 On ch=1 n=54 v=0
129707 On ch=1 n=59 v=0
129720 On ch=1 n=54 v=64
129720 On ch=1 n=59 v=64
129947 On ch=1 n=54 v=0
129947 On ch=1 n=59 v=0
129960 On ch=1 n=47 v=64
130073 On ch=1 n=47 v=0
130080 On ch=1 n=47 v=64
130193 On ch=1 n=47 v=0
130200 On ch=1 n=47 v=64
130313 On ch=1 n=47 v=0
130320 On ch=1 n=54 v=64
130320 On ch=1 n=59 v=64
130547 On ch=1 n=54 v=0
130547 On ch=1 n=59 v=0
130560 On ch=1 n=53 v=64
130560 On ch=1 n=58 v=64
130787 On ch=1 n=53 v=0
130787 On ch=1 n=58 v=0
130800 On ch=1 n=53 v=64
130800 On ch=1 n=58 v=64
131027 On ch=1 n=53 v=0
131027 On ch=1 n=58 v=0
131040 On ch=1 n=46 v=64
131153 On ch=1 n=46 v=0
131160 On ch=1 n=53 v=64
131160 On ch=1 n=58 v=64
131387 On ch=1 n=53 v=0
131387 On ch=1 n=58 v=0
131400 On ch=1 n=53 v=64
131400 On ch=1 n=58 v=64
131627 On ch=1 n=53 v=0
131627 On ch=1 n=58 v=0
131640 On ch=1 n=53 v=64
131640 On ch=1 n=58 v=64
131867 On ch=1 n=53 v=0
131867 On ch=1 n=58 v=0
131880 On ch=1 n=46 v=64
131993 On ch=1 n=46 v=0
132000 On ch=1 n=46 v=64
132113 On ch=1 n=46 v=0
132120 On ch=1 n=46 v=64
132233 On ch=1 n=46 v=0
132240 On ch=1 n=53 v=64
132240 On ch=1 n=58 v=64
132467 On ch=1 n=53 v=0
132467 On ch=1 n=58 v=0
132480 On ch=1 n=55 v=64
132480 On ch=1 n=60 v=64
132707 On ch=1 n=55 v=0
132707 On ch=1 n=60 v=0
132720 On ch=1 n=55 v=64
132720 On ch=1 n=60 v=64
132947 On ch=1 n=55 v=0
132947 On ch=1 n=60 v=0
132960 On ch=1 n=48 v=64
133073 On ch=1 n=48 v=0
133080 On ch=1 n=55 v=64
133080 On ch=1 n=60 v=64
133307 On ch=1 n=55 v=0
133307 On ch=1 n=60 v=0
133320 On ch=1 n=55 v=64
133320 On ch=1 n=60 v=64
133547 On ch=1 n=55 v=0
133547 On ch=1 n=60 v=0
133560 On ch=1 n=55 v=64
133560 On ch=1 n=60 v=64
133787 On ch=1 n=55 v=0
133787 On ch=1 n=60 v=0
133800 On ch=1 n=48 v=64
133913 On ch=1 n=48 v=0
133920 On ch=1 n=48 v=64
134033 On ch=1 n=48 v=0
134040 On ch=1 n=48 v=64
134153 On ch=1 n=48 v=0
134160 On ch=1 n=55 v=64
134160 On ch=1 n=60 v=64
134387 On ch=1 n=55 v=0
134387 On ch=1 n=60 v=0
134400 On ch=1 n=62 v=64
134400 On ch=1 n=50 v=64
134513 On ch=1 n=50 v=0
134520 On ch=1 n=50 v=64
134627 On ch=1 n=62 v=0
134633 On ch=1 n=50 v=0
134640 On ch=1 n=62 v=64
134640 On ch=1 n=62 v=64
134867 On ch=1 n=62 v=0
134867 On ch=1 n=62 v=0
134880 On ch=1 n=57 v=64
135000 On ch=1 n=62 v=64
135059 On ch=1 n=57 v=0
135227 On ch=1 n=62 v=0
135240 On ch=1 n=62 v=64
135240 On ch=1 n=56 v=64
135353 On ch=1 n=56 v=0
135467 On ch=1 n=62 v=0
135480 On ch=1 n=62 v=64
135480 On ch=1 n=55 v=64
135599 On ch=1 n=55 v=0
135707 On ch=1 n=62 v=0
135720 On ch=1 n=53 v=64
135947 On ch=1 n=53 v=0
135960 On ch=1 n=50 v=64
136073 On ch=1 n=50 v=0
136080 On ch=1 n=62 v=64
136080 On ch=1 n=53 v=64
136193 On ch=1 n=53 v=0
136200 On ch=1 n=55 v=64
136307 On ch=1 n=62 v=0
136313 On ch=1 n=55 v=0
136320 On ch=1 n=62 v=64
136320 On ch=1 n=50 v=64
136433 On ch=1 n=50 v=0
136440 On ch=1 n=50 v=64
136547 On ch=1 n=62 v=0
136553 On ch=1 n=50 v=0
136560 On ch=1 n=62 v=64
136560 On ch=1 n=62 v=64
136787 On ch=1 n=62 v=0
136787 On ch=1 n=62 v=0
136800 On ch=1 n=57 v=64
136920 On ch=1 n=62 v=64
136979 On ch=1 n=57 v=0
137147 On ch=1 n=62 v=0
137160 On ch=1 n=62 v=64
137160 On ch=1 n=56 v=64
137273 On ch=1 n=56 v=0
137387 On ch=1 n=62 v=0
137400 On ch=1 n=62 v=64
137400 On ch=1 n=55 v=64
137519 On ch=1 n=55 v=0
137627 On ch=1 n=62 v=0
137640 On ch=1 n=53 v=64
137867 On ch=1 n=53 v=0
137880 On ch=1 n=50 v=64
137993 On ch=1 n=50 v=0
138000 On ch=1 n=62 v=64
138000 On ch=1 n=53 v=64
138113 On ch=1 n=53 v=0
138120 On ch=1 n=55 v=64
138227 On ch=1 n=62 v=0
138233 On ch=1 n=55 v=0
138240 On ch=1 n=58 v=64
138353 On ch=1 n=58 v=0
138360 On ch=1 n=58 v=64
138473 On ch=1 n=58 v=0
138480 On ch=1 n=74 v=64
138599 On ch=1 n=74 v=0
138720 On ch=1 n=69 v=64
138899 On ch=1 n=69 v=0
139080 On ch=1 n=68 v=64
139193 On ch=1 n=68 v=0
139320 On ch=1 n=67 v=64
139439 On ch=1 n=67 v=0
139560 On ch=1 n=65 v=64
139787 On ch=1 n=65 v=0
139800 On ch=1 n=62 v=64
139913 On ch=1 n=62 v=0
139920 On ch=1 n=65 v=64
140033 On ch=1 n=65 v=0
140040 On ch=1 n=67 v=64
140153 On ch=1 n=67 v=0
140160 On ch=1 n=60 v=64
140273 On ch=1 n=60 v=0
140280 On ch=1 n=60 v=64
140393 On ch=1 n=60 v=0
140400 On ch=1 n=74 v=64
140519 On ch=1 n=74 v=0
140640 On ch=1 n=69 v=64
140819 On ch=1 n=69 v=0
141000 On ch=1 n=68 v=64
141113 On ch=1 n=68 v=0
141240 On ch=1 n=67 v=64
141359 On ch=1 n=67 v=0
141480 On ch=1 n=65 v=64
141707 On ch=1 n=65 v=0
141720 On ch=1 n=62 v=64
141833 On ch=1 n=62 v=0
141840 On ch=1 n=65 v=64
141953 On ch=1 n=65 v=0
141960 On ch=1 n=67 v=64
142073 On ch=1 n=67 v=0
142080 On ch=1 n=62 v=64
142193 On ch=1 n=62 v=0
142200 On ch=1 n=62 v=64
142313 On ch=1 n=62 v=0
142320 On ch=1 n=74 v=64
142439 On ch=1 n=74 v=0
142560 On ch=1 n=69 v=64
142739 On ch=1 n=69 v=0
142920 On ch=1 n=68 v=64
143033 On ch=1 n=68 v=0
143160 On ch=1 n=67 v=64
143279 On ch=1 n=67 v=0
143400 On ch=1 n=65 v=64
143627 On ch=1 n=65 v=0
143640 On ch=1 n=62 v=64
143753 On ch=1 n=62 v=0
143760 On ch=1 n=65 v=64
143873 On ch=1 n=65 v=0
143880 On ch=1 n=67 v=64
143993 On ch=1 n=67 v=0
144000 On ch=1 n=62 v=64
144113 On ch=1 n=62 v=0
144120 On ch=1 n=62 v=64
144233 On ch=1 n=62 v=0
144240 On ch=1 n=74 v=64
144359 On ch=1 n=74 v=0
144480 On ch=1 n=69 v=64
144659 On ch=1 n=69 v=0
144840 On ch=1 n=68 v=64
144953 On ch=1 n=68 v=0
145080 On ch=1 n=67 v=64
145199 On ch=1 n=67 v=0
145320 On ch=1 n=65 v=64
145547 On ch=1 n=65 v=0
145560 On ch=1 n=62 v=64
145673 On ch=1 n=62 v=0
145680 On ch=1 n=65 v=64
145793 On ch=1 n=65 v=0
145800 On ch=1 n=67 v=64
145913 On ch=1 n=67 v=0
145920 On ch=1 n=58 v=64
146033 On ch=1 n=58 v=0
146040 On ch=1 n=58 v=64
146153 On ch=1 n=58 v=0
146160 On ch=1 n=74 v=64
146279 On ch=1 n=74 v=0
146400 On ch=1 n=69 v=64
146579 On ch=1 n=69 v=0
146760 On ch=1 n=68 v=64
146873 On ch=1 n=68 v=0
147000 On ch=1 n=67 v=64
147119 On ch=1 n=67 v=0
147240 On ch=1 n=65 v=64
147467 On ch=1 n=65 v=0
147480 On ch=1 n=62 v=64
147593 On ch=1 n=62 v=0
147600 On ch=1 n=65 v=64
147713 On ch=1 n=65 v=0
147720 On ch=1 n=67 v=64
147833 On ch=1 n=67 v=0
147840 On ch=1 n=60 v=64
147953 On ch=1 n=60 v=0
147960 On ch=1 n=60 v=64
148073 On ch=1 n=60 v=0
148080 On ch=1 n=74 v=64
148199 On ch=1 n=74 v=0
148320 On ch=1 n=69 v=64
148499 On ch=1 n=69 v=0
148680 On ch=1 n=68 v=64
148793 On ch=1 n=68 v=0
148920 On ch=1 n=67 v=64
149039 On ch=1 n=67 v=0
149160 On ch=1 n=65 v=64
149387 On ch=1 n=65 v=0
149400 On ch=1 n=62 v=64
149513 On ch=1 n=62 v=0
149520 On ch=1 n=65 v=64
149633 On ch=1 n=65 v=0
149640 On ch=1 n=67 v=64
149753 On ch=1 n=67 v=0
149760 TimeSig 4/4 24 8
149760 KeySig 255 major
149760 Tempo 500000
149760 On ch=1 n=62 v=64
149873 On ch=1 n=62 v=0
149880 On ch=1 n=62 v=64
149993 On ch=1 n=62 v=0
150000 On ch=1 n=74 v=64
150119 On ch=1 n=74 v=0
150240 On ch=1 n=69 v=64
150419 On ch=1 n=69 v=0
150600 On ch=1 n=68 v=64
150713 On ch=1 n=68 v=0
150840 On ch=1 n=67 v=64
150959 On ch=1 n=67 v=0
151080 On ch=1 n=65 v=64
151307 On ch=1 n=65 v=0
151320 On ch=1 n=62 v=64
151433 On ch=1 n=62 v=0
151440 On ch=1 n=65 v=64
151553 On ch=1 n=65 v=0
151560 On ch=1 n=67 v=64
151673 On ch=1 n=67 v=0
151680 On ch=1 n=60 v=64
151793 On ch=1 n=60 v=0
151800 On ch=1 n=60 v=64
151913 On ch=1 n=60 v=0
151920 On ch=1 n=74 v=64
152039 On ch=1 n=74 v=0
152160 On ch=1 n=69 v=64
152339 On ch=1 n=69 v=0
152520 On ch=1 n=68 v=64
152633 On ch=1 n=68 v=0
152760 On ch=1 n=67 v=64
152879 On ch=1 n=67 v=0
153000 On ch=1 n=65 v=64
153227 On ch=1 n=65 v=0
153240 On ch=1 n=62 v=64
153353 On ch=1 n=62 v=0
153360 On ch=1 n=65 v=64
153473 On ch=1 n=65 v=0
153480 On ch=1 n=67 v=64
153593 On ch=1 n=67 v=0
153600 On ch=1 n=59 v=64
153713 On ch=1 n=59 v=0
153720 On ch=1 n=59 v=64
153833 On ch=1 n=59 v=0
153840 On ch=1 n=74 v=64
153959 On ch=1 n=74 v=0
154080 On ch=1 n=69 v=64
154259 On ch=1 n=69 v=0
154440 On ch=1 n=68 v=64
154553 On ch=1 n=68 v=0
154680 On ch=1 n=67 v=64
154799 On ch=1 n=67 v=0
154920 On ch=1 n=65 v=64
155147 On ch=1 n=65 v=0
155160 On ch=1 n=62 v=64
155273 On ch=1 n=62 v=0
155280 On ch=1 n=65 v=64
155393 On ch=1 n=65 v=0
155400 On ch=1 n=67 v=64
155513 On ch=1 n=67 v=0
155520 On ch=1 n=58 v=64
155633 On ch=1 n=58 v=0
155640 On ch=1 n=58 v=64
155753 On ch=1 n=58 v=0
155760 On ch=1 n=74 v=64
155879 On ch=1 n=74 v=0
156000 On ch=1 n=69 v=64
156179 On ch=1 n=69 v=0
156360 On ch=1 n=68 v=64
156473 On ch=1 n=68 v=0
156600 On ch=1 n=67 v=64
156719 On ch=1 n=67 v=0
156840 On ch=1 n=65 v=64
157067 On ch=1 n=65 v=0
157080 On ch=1 n=62 v=64
157193 On ch=1 n=62 v=0
157200 On ch=1 n=65 v=64
157313 On ch=1 n=65 v=0
157320 On ch=1 n=67 v=64
157433 On ch=1 n=67 v=0
157434 Meta TrkEnd
TrkEnd
MTrk
0 KeySig 255 major
0 KeySig 0 major
0 KeySig 0 major
0 KeySig 0 major
0 KeySig 0 major
0 Meta 0x21 00
7680 On ch=1 n=50 v=64
7799 On ch=1 n=50 v=0
7920 On ch=1 n=50 v=64
8039 On ch=1 n=50 v=0
8160 On ch=1 n=50 v=64
8273 On ch=1 n=50 v=0
8280 On ch=1 n=50 v=64
8399 On ch=1 n=50 v=0
8520 On ch=1 n=50 v=64
8633 On ch=1 n=50 v=0
8760 On ch=1 n=50 v=64
8879 On ch=1 n=50 v=0
9000 On ch=1 n=50 v=64
9113 On ch=1 n=50 v=0
9120 On ch=1 n=50 v=64
9233 On ch=1 n=50 v=0
9240 On ch=1 n=50 v=64
9353 On ch=1 n=50 v=0
9360 On ch=1 n=50 v=64
9479 On ch=1 n=50 v=0
9600 On ch=1 n=48 v=64
9719 On ch=1 n=48 v=0
9840 On ch=1 n=48 v=64
9959 On ch=1 n=48 v=0
10080 On ch=1 n=48 v=64
10193 On ch=1 n=48 v=0
10200 On ch=1 n=48 v=64
10319 On ch=1 n=48 v=0
10440 On ch=1 n=48 v=64
10553 On ch=1 n=48 v=0
10680 On ch=1 n=48 v=64
10799 On ch=1 n=48 v=0
10920 On ch=1 n=48 v=64
11033 On ch=1 n=48 v=0
11040 On ch=1 n=48 v=64
11153 On ch=1 n=48 v=0
11160 On ch=1 n=48 v=64
11273 On ch=1 n=48 v=0
11280 On ch=1 n=48 v=64
11399 On ch=1 n=48 v=0
11520 On ch=1 n=47 v=64
11639 On ch=1 n=47 v=0
11760 On ch=1 n=47 v=64
11879 On ch=1 n=47 v=0
12000 On ch=1 n=47 v=64
12113 On ch=1 n=47 v=0
12120 On ch=1 n=47 v=64
12239 On ch=1 n=47 v=0
12360 On ch=1 n=47 v=64
12473 On ch=1 n=47 v=0
12600 On ch=1 n=47 v=64
12719 On ch=1 n=47 v=0
12840 On ch=1 n=47 v=64
12953 On ch=1 n=47 v=0
12960 On ch=1 n=47 v=64
13073 On ch=1 n=47 v=0
13080 On ch=1 n=47 v=64
13193 On ch=1 n=47 v=0
13200 On ch=1 n=47 v=64
13319 On ch=1 n=47 v=0
13440 On ch=1 n=46 v=64
13559 On ch=1 n=46 v=0
13680 On ch=1 n=46 v=64
13799 On ch=1 n=46 v=0
13920 On ch=1 n=46 v=64
14033 On ch=1 n=46 v=0
14040 On ch=1 n=46 v=64
14159 On ch=1 n=46 v=0
14280 On ch=1 n=48 v=64
14393 On ch=1 n=48 v=0
14520 On ch=1 n=48 v=64
14639 On ch=1 n=48 v=0
14760 On ch=1 n=48 v=64
14873 On ch=1 n=48 v=0
14880 On ch=1 n=48 v=64
14993 On ch=1 n=48 v=0
15000 On ch=1 n=48 v=64
15113 On ch=1 n=48 v=0
15120 On ch=1 n=48 v=64
15239 On ch=1 n=48 v=0
15360 On ch=1 n=38 v=96
15587 On ch=1 n=38 v=0
15600 On ch=1 n=50 v=96
15827 On ch=1 n=50 v=0
15840 On ch=1 n=38 v=96
15953 On ch=1 n=38 v=0
15960 On ch=1 n=38 v=96
16073 On ch=1 n=38 v=0
16080 On ch=1 n=50 v=96
16193 On ch=1 n=50 v=0
16200 On ch=1 n=38 v=96
16427 On ch=1 n=38 v=0
16440 On ch=1 n=38 v=96
16553 On ch=1 n=38 v=0
16560 On ch=1 n=50 v=96
16673 On ch=1 n=50 v=0
16680 On ch=1 n=38 v=96
16793 On ch=1 n=38 v=0
16800 On ch=1 n=38 v=96
16913 On ch=1 n=38 v=0
16920 On ch=1 n=38 v=96
17033 On ch=1 n=38 v=0
17040 On ch=1 n=50 v=96
17267 On ch=1 n=50 v=0
17280 On ch=1 n=36 v=96
17507 On ch=1 n=36 v=0
17520 On ch=1 n=48 v=96
17747 On ch=1 n=48 v=0
17760 On ch=1 n=36 v=96
17873 On ch=1 n=36 v=0
17880 On ch=1 n=36 v=96
17993 On ch=1 n=36 v=0
18000 On ch=1 n=48 v=96
18113 On ch=1 n=48 v=0
18120 On ch=1 n=36 v=96
18347 On ch=1 n=36 v=0
18360 On ch=1 n=36 v=96
18473 On ch=1 n=36 v=0
18480 On ch=1 n=48 v=96
18593 On ch=1 n=48 v=0
18600 On ch=1 n=36 v=96
18713 On ch=1 n=36 v=0
18720 On ch=1 n=36 v=96
18833 On ch=1 n=36 v=0
18840 On ch=1 n=36 v=96
18953 On ch=1 n=36 v=0
18960 On ch=1 n=48 v=96
19187 On ch=1 n=48 v=0
19200 On ch=1 n=35 v=96
19427 On ch=1 n=35 v=0
19440 On ch=1 n=47 v=96
19667 On ch=1 n=47 v=0
19680 On ch=1 n=35 v=96
19793 On ch=1 n=35 v=0
19800 On ch=1 n=35 v=96
19913 On ch=1 n=35 v=0
19920 On ch=1 n=47 v=96
20033 On ch=1 n=47 v=0
20040 On ch=1 n=35 v=96
20267 On ch=1 n=35 v=0
20280 On ch=1 n=35 v=96
20393 On ch=1 n=35 v=0
20400 On ch=1 n=47 v=96
20513 On ch=1 n=47 v=0
20520 On ch=1 n=35 v=96
20633 On ch=1 n=35 v=0
20640 On ch=1 n=35 v=96
20753 On ch=1 n=35 v=0
20760 On ch=1 n=35 v=96
20873 On ch=1 n=35 v=0
20880 On ch=1 n=47 v=96
21107 On ch=1 n=47 v=0
21120 On ch=1 n=34 v=96
21347 On ch=1 n=34 v=0
21360 On ch=1 n=46 v=96
21587 On ch=1 n=46 v=0
21600 On ch=1 n=34 v=96
21713 On ch=1 n=34 v=0
21720 On ch=1 n=34 v=96
21833 On ch=1 n=34 v=0
21840 On ch=1 n=46 v=96
21953 On ch=1 n=46 v=0
21960 On ch=1 n=36 v=96
22187 On ch=1 n=36 v=0
22200 On ch=1 n=36 v=96
22313 On ch=1 n=36 v=0
22320 On ch=1 n=48 v=96
22433 On ch=1 n=48 v=0
22440 On ch=1 n=36 v=96
22553 On ch=1 n=36 v=0
22560 On ch=1 n=36 v=96
22673 On ch=1 n=36 v=0
22680 On ch=1 n=36 v=96
22793 On ch=1 n=36 v=0
22800 On ch=1 n=48 v=96
23027 On ch=1 n=48 v=0
23040 On ch=1 n=38 v=96
23267 On ch=1 n=38 v=0
23280 On ch=1 n=50 v=96
23507 On ch=1 n=50 v=0
23520 On ch=1 n=38 v=96
23633 On ch=1 n=38 v=0
23640 On ch=1 n=38 v=96
23753 On ch=1 n=38 v=0
23760 On ch=1 n=50 v=96
23873 On ch=1 n=50 v=0
23880 On ch=1 n=38 v=96
24107 On ch=1 n=38 v=0
24120 On ch=1 n=38 v=96
24233 On ch=1 n=38 v=0
24240 On ch=1 n=50 v=96
24353 On ch=1 n=50 v=0
24360 On ch=1 n=38 v=96
24473 On ch=1 n=38 v=0
24480 On ch=1 n=38 v=96
24593 On ch=1 n=38 v=0
24600 On ch=1 n=38 v=96
24713 On ch=1 n=38 v=0
24720 On ch=1 n=50 v=96
24947 On ch=1 n=50 v=0
24960 On ch=1 n=36 v=96
25187 On ch=1 n=36 v=0
25200 On ch=1 n=48 v=96
25427 On ch=1 n=48 v=0
25440 On ch=1 n=36 v=96
25553 On ch=1 n=36 v=0
25560 On ch=1 n=36 v=96
25673 On ch=1 n=36 v=0
25680 On ch=1 n=48 v=96
25793 On ch=1 n=48 v=0
25800 On ch=1 n=36 v=96
26027 On ch=1 n=36 v=0
26040 On ch=1 n=36 v=96
26153 On ch=1 n=36 v=0
26160 On ch=1 n=48 v=96
26273 On ch=1 n=48 v=0
26280 On ch=1 n=36 v=96
26393 On ch=1 n=36 v=0
26400 On ch=1 n=36 v=96
26513 On ch=1 n=36 v=0
26520 On ch=1 n=36 v=96
26633 On ch=1 n=36 v=0
26640 On ch=1 n=48 v=96
26867 On ch=1 n=48 v=0
26880 On ch=1 n=35 v=96
27107 On ch=1 n=35 v=0
27120 On ch=1 n=47 v=96
27347 On ch=1 n=47 v=0
27360 On ch=1 n=35 v=96
27473 On ch=1 n=35 v=0
27480 On ch=1 n=35 v=96
27593 On ch=1 n=35 v=0
27600 On ch=1 n=47 v=96
27713 On ch=1 n=47 v=0
27720 On ch=1 n=35 v=96
27947 On ch=1 n=35 v=0
27960 On ch=1 n=35 v=96
28073 On ch=1 n=35 v=0
28080 On ch=1 n=47 v=96
28193 On ch=1 n=47 v=0
28200 On ch=1 n=35 v=96
28313 On ch=1 n=35 v=0
28320 On ch=1 n=35 v=96
28433 On ch=1 n=35 v=0
28440 On ch=1 n=35 v=96
28553 On ch=1 n=35 v=0
28560 On ch=1 n=47 v=96
28787 On ch=1 n=47 v=0
28800 On ch=1 n=34 v=96
29027 On ch=1 n=34 v=0
29040 On ch=1 n=46 v=96
29267 On ch=1 n=46 v=0
29280 On ch=1 n=34 v=96
29393 On ch=1 n=34 v=0
29400 On ch=1 n=34 v=96
29513 On ch=1 n=34 v=0
29520 On ch=1 n=46 v=96
29633 On ch=1 n=46 v=0
29640 On ch=1 n=36 v=96
29867 On ch=1 n=36 v=0
29880 On ch=1 n=36 v=96
29993 On ch=1 n=36 v=0
30000 On ch=1 n=48 v=96
30113 On ch=1 n=48 v=0
30120 On ch=1 n=36 v=96
30233 On ch=1 n=36 v=0
30240 On ch=1 n=36 v=96
30353 On ch=1 n=36 v=0
30360 On ch=1 n=36 v=96
30473 On ch=1 n=36 v=0
30480 On ch=1 n=48 v=96
30707 On ch=1 n=48 v=0
30720 On ch=1 n=38 v=80
30947 On ch=1 n=38 v=0
30960 On ch=1 n=50 v=80
31187 On ch=1 n=50 v=0
31200 On ch=1 n=38 v=80
31313 On ch=1 n=38 v=0
31320 On ch=1 n=38 v=80
31433 On ch=1 n=38 v=0
31440 On ch=1 n=50 v=80
31553 On ch=1 n=50 v=0
31560 On ch=1 n=38 v=80
31787 On ch=1 n=38 v=0
31800 On ch=1 n=38 v=80
31913 On ch=1 n=38 v=0
31920 On ch=1 n=50 v=80
32033 On ch=1 n=50 v=0
32040 On ch=1 n=38 v=80
32153 On ch=1 n=38 v=0
32160 On ch=1 n=38 v=80
32273 On ch=1 n=38 v=0
32280 On ch=1 n=38 v=80
32393 On ch=1 n=38 v=0
32400 On ch=1 n=50 v=80
32627 On ch=1 n=50 v=0
32640 On ch=1 n=36 v=80
32867 On ch=1 n=36 v=0
32880 On ch=1 n=48 v=80
33107 On ch=1 n=48 v=0
33120 On ch=1 n=36 v=80
33233 On ch=1 n=36 v=0
33240 On ch=1 n=36 v=80
33353 On ch=1 n=36 v=0
33360 On ch=1 n=48 v=80
33473 On ch=1 n=48 v=0
33480 On ch=1 n=36 v=80
33707 On ch=1 n=36 v=0
33720 On ch=1 n=36 v=80
33833 On ch=1 n=36 v=0
33840 On ch=1 n=48 v=80
33953 On ch=1 n=48 v=0
33960 On ch=1 n=36 v=80
34073 On ch=1 n=36 v=0
34080 On ch=1 n=36 v=80
34193 On ch=1 n=36 v=0
34200 On ch=1 n=36 v=80
34313 On ch=1 n=36 v=0
34320 On ch=1 n=48 v=80
34547 On ch=1 n=48 v=0
34560 On ch=1 n=35 v=80
34787 On ch=1 n=35 v=0
34800 On ch=1 n=47 v=80
35027 On ch=1 n=47 v=0
35040 On ch=1 n=35 v=80
35153 On ch=1 n=35 v=0
35160 On ch=1 n=35 v=80
35273 On ch=1 n=35 v=0
35280 On ch=1 n=47 v=80
35393 On ch=1 n=47 v=0
35400 On ch=1 n=35 v=80
35627 On ch=1 n=35 v=0
35640 On ch=1 n=35 v=80
35753 On ch=1 n=35 v=0
35760 On ch=1 n=47 v=80
35873 On ch=1 n=47 v=0
35880 On ch=1 n=35 v=80
35993 On ch=1 n=35 v=0
36000 On ch=1 n=35 v=80
36113 On ch=1 n=35 v=0
36120 On ch=1 n=35 v=80
36233 On ch=1 n=35 v=0
36240 On ch=1 n=47 v=80
36467 On ch=1 n=47 v=0
36480 On ch=1 n=34 v=80
36707 On ch=1 n=34 v=0
36720 On ch=1 n=46 v=82
36947 On ch=1 n=46 v=0
36960 On ch=1 n=34 v=84
37073 On ch=1 n=34 v=0
37080 On ch=1 n=34 v=85
37193 On ch=1 n=34 v=0
37200 On ch=1 n=46 v=86
37313 On ch=1 n=46 v=0
37320 On ch=1 n=36 v=87
37547 On ch=1 n=36 v=0
37560 On ch=1 n=36 v=89
37673 On ch=1 n=36 v=0
37680 On ch=1 n=48 v=90
37793 On ch=1 n=48 v=0
37800 On ch=1 n=36 v=91
37913 On ch=1 n=36 v=0
37920 On ch=1 n=36 v=92
38033 On ch=1 n=36 v=0
38040 On ch=1 n=36 v=93
38153 On ch=1 n=36 v=0
38160 On ch=1 n=48 v=94
38387 On ch=1 n=48 v=0
38400 On ch=1 n=38 v=96
38513 On ch=1 n=38 v=0
38520 On ch=1 n=38 v=96
38633 On ch=1 n=38 v=0
38640 On ch=1 n=50 v=96
38759 On ch=1 n=50 v=0
38880 On ch=1 n=45 v=96
38880 On ch=1 n=38 v=96
38993 On ch=1 n=38 v=0
39000 On ch=1 n=38 v=96
39059 On ch=1 n=45 v=0
39113 On ch=1 n=38 v=0
39120 On ch=1 n=50 v=96
39233 On ch=1 n=50 v=0
39240 On ch=1 n=44 v=96
39240 On ch=1 n=38 v=96
39353 On ch=1 n=44 v=0
39467 On ch=1 n=38 v=0
39480 On ch=1 n=43 v=96
39480 On ch=1 n=38 v=96
39593 On ch=1 n=38 v=0
39599 On ch=1 n=43 v=0
39600 On ch=1 n=50 v=96
39713 On ch=1 n=50 v=0
39720 On ch=1 n=41 v=96
39720 On ch=1 n=38 v=96
39833 On ch=1 n=38 v=0
39840 On ch=1 n=38 v=96
39947 On ch=1 n=41 v=0
39953 On ch=1 n=38 v=0
39960 On ch=1 n=38 v=96
39960 On ch=1 n=38 v=96
40073 On ch=1 n=38 v=0
40073 On ch=1 n=38 v=0
40080 On ch=1 n=41 v=96
40080 On ch=1 n=50 v=96
40193 On ch=1 n=41 v=0
40200 On ch=1 n=43 v=96
40307 On ch=1 n=50 v=0
40313 On ch=1 n=43 v=0
40320 On ch=1 n=36 v=96
40433 On ch=1 n=36 v=0
40440 On ch=1 n=36 v=96
40553 On ch=1 n=36 v=0
40560 On ch=1 n=50 v=96
40679 On ch=1 n=50 v=0
40800 On ch=1 n=45 v=96
40800 On ch=1 n=36 v=96
40913 On ch=1 n=36 v=0
40920 On ch=1 n=36 v=96
40979 On ch=1 n=45 v=0
41033 On ch=1 n=36 v=0
41040 On ch=1 n=50 v=96
41153 On ch=1 n=50 v=0
41160 On ch=1 n=44 v=96
41160 On ch=1 n=36 v=96
41273 On ch=1 n=44 v=0
41387 On ch=1 n=36 v=0
41400 On ch=1 n=43 v=96
41400 On ch=1 n=36 v=96
41513 On ch=1 n=36 v=0
41519 On ch=1 n=43 v=0
41520 On ch=1 n=50 v=96
41633 On ch=1 n=50 v=0
41640 On ch=1 n=41 v=96
41640 On ch=1 n=36 v=96
41753 On ch=1 n=36 v=0
41760 On ch=1 n=36 v=96
41867 On ch=1 n=41 v=0
41873 On ch=1 n=36 v=0
41880 On ch=1 n=38 v=96
41880 On ch=1 n=38 v=96
41993 On ch=1 n=38 v=0
41993 On ch=1 n=38 v=0
42000 On ch=1 n=41 v=96
42000 On ch=1 n=50 v=96
42113 On ch=1 n=41 v=0
42120 On ch=1 n=43 v=96
42227 On ch=1 n=50 v=0
42233 On ch=1 n=43 v=0
42240 On ch=1 n=35 v=96
42353 On ch=1 n=35 v=0
42360 On ch=1 n=35 v=96
42473 On ch=1 n=35 v=0
42480 On ch=1 n=50 v=96
42599 On ch=1 n=50 v=0
42720 On ch=1 n=45 v=96
42720 On ch=1 n=35 v=96
42833 On ch=1 n=35 v=0
42840 On ch=1 n=35 v=96
42899 On ch=1 n=45 v=0
42953 On ch=1 n=35 v=0
42960 On ch=1 n=50 v=96
43073 On ch=1 n=50 v=0
43080 On ch=1 n=44 v=96
43080 On ch=1 n=35 v=96
43193 On ch=1 n=44 v=0
43307 On ch=1 n=35 v=0
43320 On ch=1 n=43 v=96
43320 On ch=1 n=35 v=96
43433 On ch=1 n=35 v=0
43439 On ch=1 n=43 v=0
43440 On ch=1 n=50 v=96
43553 On ch=1 n=50 v=0
43560 On ch=1 n=41 v=96
43560 On ch=1 n=35 v=96
43673 On ch=1 n=35 v=0
43680 On ch=1 n=35 v=96
43787 On ch=1 n=41 v=0
43793 On ch=1 n=35 v=0
43800 On ch=1 n=38 v=96
43800 On ch=1 n=38 v=96
43913 On ch=1 n=38 v=0
43913 On ch=1 n=38 v=0
43920 On ch=1 n=41 v=96
43920 On ch=1 n=50 v=96
44033 On ch=1 n=41 v=0
44040 On ch=1 n=43 v=96
44147 On ch=1 n=50 v=0
44153 On ch=1 n=43 v=0
44160 On ch=1 n=34 v=96
44273 On ch=1 n=34 v=0
44280 On ch=1 n=34 v=96
44393 On ch=1 n=34 v=0
44400 On ch=1 n=50 v=96
44519 On ch=1 n=50 v=0
44640 On ch=1 n=45 v=96
44640 On ch=1 n=34 v=96
44753 On ch=1 n=34 v=0
44760 On ch=1 n=34 v=96
44819 On ch=1 n=45 v=0
44873 On ch=1 n=34 v=0
44880 On ch=1 n=50 v=96
44993 On ch=1 n=50 v=0
45000 On ch=1 n=44 v=96
45000 On ch=1 n=36 v=96
45113 On ch=1 n=44 v=0
45227 On ch=1 n=36 v=0
45240 On ch=1 n=43 v=96
45240 On ch=1 n=36 v=96
45353 On ch=1 n=36 v=0
45359 On ch=1 n=43 v=0
45360 On ch=1 n=50 v=96
45473 On ch=1 n=50 v=0
45480 On ch=1 n=41 v=96
45480 On ch=1 n=36 v=96
45593 On ch=1 n=36 v=0
45600 On ch=1 n=36 v=96
45707 On ch=1 n=41 v=0
45713 On ch=1 n=36 v=0
45720 On ch=1 n=38 v=96
45720 On ch=1 n=38 v=96
45833 On ch=1 n=38 v=0
45833 On ch=1 n=38 v=0
45840 On ch=1 n=41 v=96
45840 On ch=1 n=50 v=96
45953 On ch=1 n=41 v=0
45960 On ch=1 n=43 v=96
46067 On ch=1 n=50 v=0
46073 On ch=1 n=43 v=0
46080 On ch=1 n=34 v=80
46307 On ch=1 n=34 v=0
46320 On ch=1 n=46 v=80
46547 On ch=1 n=46 v=0
46560 On ch=1 n=34 v=80
46673 On ch=1 n=34 v=0
46680 On ch=1 n=34 v=80
46793 On ch=1 n=34 v=0
46800 On ch=1 n=46 v=80
46913 On ch=1 n=46 v=0
46920 On ch=1 n=34 v=80
47147 On ch=1 n=34 v=0
47160 On ch=1 n=34 v=80
47273 On ch=1 n=34 v=0
47280 On ch=1 n=46 v=80
47393 On ch=1 n=46 v=0
47400 On ch=1 n=34 v=80
47513 On ch=1 n=34 v=0
47520 On ch=1 n=34 v=80
47633 On ch=1 n=34 v=0
47640 On ch=1 n=34 v=80
47753 On ch=1 n=34 v=0
47760 On ch=1 n=46 v=80
47987 On ch=1 n=46 v=0
48000 On ch=1 n=36 v=80
48227 On ch=1 n=36 v=0
48240 On ch=1 n=48 v=80
48467 On ch=1 n=48 v=0
48480 On ch=1 n=36 v=80
48593 On ch=1 n=36 v=0
48600 On ch=1 n=36 v=80
48713 On ch=1 n=36 v=0
48720 On ch=1 n=48 v=80
48833 On ch=1 n=48 v=0
48840 On ch=1 n=36 v=80
49067 On ch=1 n=36 v=0
49080 On ch=1 n=36 v=80
49193 On ch=1 n=36 v=0
49200 On ch=1 n=48 v=80
49313 On ch=1 n=48 v=0
49320 On ch=1 n=36 v=80
49433 On ch=1 n=36 v=0
49440 On ch=1 n=36 v=80
49553 On ch=1 n=36 v=0
49560 On ch=1 n=36 v=80
49673 On ch=1 n=36 v=0
49680 On ch=1 n=48 v=80
49907 On ch=1 n=48 v=0
49920 On ch=1 n=38 v=80
50147 On ch=1 n=38 v=0
50160 On ch=1 n=50 v=80
50387 On ch=1 n=50 v=0
50400 On ch=1 n=38 v=80
50513 On ch=1 n=38 v=0
50520 On ch=1 n=38 v=80
50633 On ch=1 n=38 v=0
50640 On ch=1 n=50 v=80
50753 On ch=1 n=50 v=0
50760 On ch=1 n=38 v=80
50987 On ch=1 n=38 v=0
51000 On ch=1 n=38 v=80
51113 On ch=1 n=38 v=0
51120 On ch=1 n=50 v=80
51233 On ch=1 n=50 v=0
51240 On ch=1 n=38 v=80
51353 On ch=1 n=38 v=0
51360 On ch=1 n=38 v=80
51473 On ch=1 n=38 v=0
51480 On ch=1 n=38 v=80
51593 On ch=1 n=38 v=0
51600 On ch=1 n=50 v=80
51827 On ch=1 n=50 v=0
51840 On ch=1 n=37 v=80
52067 On ch=1 n=37 v=0
52080 On ch=1 n=49 v=80
52307 On ch=1 n=49 v=0
52320 On ch=1 n=37 v=80
52433 On ch=1 n=37 v=0
52440 On ch=1 n=37 v=80
52553 On ch=1 n=37 v=0
52560 On ch=1 n=49 v=80
52673 On ch=1 n=49 v=0
52680 On ch=1 n=39 v=80
52907 On ch=1 n=39 v=0
52920 On ch=1 n=39 v=80
53033 On ch=1 n=39 v=0
53040 On ch=1 n=51 v=80
53153 On ch=1 n=51 v=0
53160 On ch=1 n=39 v=80
53273 On ch=1 n=39 v=0
53280 On ch=1 n=39 v=80
53393 On ch=1 n=39 v=0
53400 On ch=1 n=39 v=80
53513 On ch=1 n=39 v=0
53520 On ch=1 n=51 v=80
53747 On ch=1 n=51 v=0
53760 On ch=1 n=34 v=80
53987 On ch=1 n=34 v=0
54000 On ch=1 n=46 v=80
54227 On ch=1 n=46 v=0
54240 On ch=1 n=34 v=80
54353 On ch=1 n=34 v=0
54360 On ch=1 n=34 v=80
54473 On ch=1 n=34 v=0
54480 On ch=1 n=46 v=80
54593 On ch=1 n=46 v=0
54600 On ch=1 n=34 v=80
54827 On ch=1 n=34 v=0
54840 On ch=1 n=34 v=80
54953 On ch=1 n=34 v=0
54960 On ch=1 n=46 v=80
55073 On ch=1 n=46 v=0
55080 On ch=1 n=34 v=80
55193 On ch=1 n=34 v=0
55200 On ch=1 n=34 v=80
55313 On ch=1 n=34 v=0
55320 On ch=1 n=34 v=80
55433 On ch=1 n=34 v=0
55440 On ch=1 n=46 v=80
55667 On ch=1 n=46 v=0
55680 On ch=1 n=36 v=80
55907 On ch=1 n=36 v=0
55920 On ch=1 n=48 v=80
56147 On ch=1 n=48 v=0
56160 On ch=1 n=36 v=80
56273 On ch=1 n=36 v=0
56280 On ch=1 n=36 v=80
56393 On ch=1 n=36 v=0
56400 On ch=1 n=48 v=80
56513 On ch=1 n=48 v=0
56520 On ch=1 n=36 v=80
56747 On ch=1 n=36 v=0
56760 On ch=1 n=36 v=80
56873 On ch=1 n=36 v=0
56880 On ch=1 n=48 v=80
56993 On ch=1 n=48 v=0
57000 On ch=1 n=36 v=80
57113 On ch=1 n=36 v=0
57120 On ch=1 n=36 v=80
57233 On ch=1 n=36 v=0
57240 On ch=1 n=36 v=80
57353 On ch=1 n=36 v=0
57360 On ch=1 n=48 v=80
57587 On ch=1 n=48 v=0
57600 On ch=1 n=38 v=80
57827 On ch=1 n=38 v=0
57840 On ch=1 n=50 v=80
58067 On ch=1 n=50 v=0
58080 On ch=1 n=38 v=80
58193 On ch=1 n=38 v=0
58200 On ch=1 n=38 v=80
58313 On ch=1 n=38 v=0
58320 On ch=1 n=50 v=80
58433 On ch=1 n=50 v=0
58440 On ch=1 n=38 v=80
58667 On ch=1 n=38 v=0
58680 On ch=1 n=38 v=80
58793 On ch=1 n=38 v=0
58800 On ch=1 n=50 v=80
58913 On ch=1 n=50 v=0
58920 On ch=1 n=38 v=80
59033 On ch=1 n=38 v=0
59040 On ch=1 n=38 v=80
59153 On ch=1 n=38 v=0
59160 On ch=1 n=38 v=80
59273 On ch=1 n=38 v=0
59280 On ch=1 n=50 v=80
59507 On ch=1 n=50 v=0
59520 On ch=1 n=37 v=80
59747 On ch=1 n=37 v=0
59760 On ch=1 n=49 v=80
59987 On ch=1 n=49 v=0
60000 On ch=1 n=37 v=80
60113 On ch=1 n=37 v=0
60120 On ch=1 n=37 v=80
60233 On ch=1 n=37 v=0
60240 On ch=1 n=49 v=80
60353 On ch=1 n=49 v=0
60360 On ch=1 n=39 v=80
60587 On ch=1 n=39 v=0
60600 On ch=1 n=39 v=80
60713 On ch=1 n=39 v=0
60720 On ch=1 n=51 v=80
60833 On ch=1 n=51 v=0
60840 On ch=1 n=39 v=80
60953 On ch=1 n=39 v=0
60960 On ch=1 n=39 v=80
61073 On ch=1 n=39 v=0
61080 On ch=1 n=39 v=80
61193 On ch=1 n=39 v=0
61200 On ch=1 n=51 v=80
61427 On ch=1 n=51 v=0
61440 On ch=1 n=34 v=80
61667 On ch=1 n=34 v=0
61680 On ch=1 n=46 v=80
61907 On ch=1 n=46 v=0
61920 On ch=1 n=34 v=80
62033 On ch=1 n=34 v=0
62040 On ch=1 n=34 v=80
62153 On ch=1 n=34 v=0
62160 On ch=1 n=46 v=80
62273 On ch=1 n=46 v=0
62280 On ch=1 n=34 v=80
62507 On ch=1 n=34 v=0
62520 On ch=1 n=34 v=80
62633 On ch=1 n=34 v=0
62640 On ch=1 n=46 v=80
62753 On ch=1 n=46 v=0
62760 On ch=1 n=34 v=80
62873 On ch=1 n=34 v=0
62880 On ch=1 n=34 v=80
62993 On ch=1 n=34 v=0
63000 On ch=1 n=34 v=80
63113 On ch=1 n=34 v=0
63120 On ch=1 n=46 v=80
63347 On ch=1 n=46 v=0
63360 On ch=1 n=36 v=80
63587 On ch=1 n=36 v=0
63600 On ch=1 n=48 v=80
63827 On ch=1 n=48 v=0
63840 On ch=1 n=36 v=80
63953 On ch=1 n=36 v=0
63960 On ch=1 n=36 v=80
64073 On ch=1 n=36 v=0
64080 On ch=1 n=48 v=80
64193 On ch=1 n=48 v=0
64200 On ch=1 n=36 v=80
64427 On ch=1 n=36 v=0
64440 On ch=1 n=36 v=80
64553 On ch=1 n=36 v=0
64560 On ch=1 n=48 v=80
64673 On ch=1 n=48 v=0
64680 On ch=1 n=36 v=80
64793 On ch=1 n=36 v=0
64800 On ch=1 n=36 v=80
64913 On ch=1 n=36 v=0
64920 On ch=1 n=36 v=80
65033 On ch=1 n=36 v=0
65040 On ch=1 n=48 v=80
65267 On ch=1 n=48 v=0
65280 On ch=1 n=38 v=80
65507 On ch=1 n=38 v=0
65520 On ch=1 n=50 v=80
65747 On ch=1 n=50 v=0
65760 On ch=1 n=38 v=80
65873 On ch=1 n=38 v=0
65880 On ch=1 n=38 v=80
65993 On ch=1 n=38 v=0
66000 On ch=1 n=50 v=80
66113 On ch=1 n=50 v=0
66120 On ch=1 n=38 v=80
66347 On ch=1 n=38 v=0
66360 On ch=1 n=38 v=80
66473 On ch=1 n=38 v=0
66480 On ch=1 n=50 v=80
66593 On ch=1 n=50 v=0
66600 On ch=1 n=38 v=80
66713 On ch=1 n=38 v=0
66720 On ch=1 n=38 v=80
66833 On ch=1 n=38 v=0
66840 On ch=1 n=38 v=80
66953 On ch=1 n=38 v=0
66960 On ch=1 n=50 v=80
67187 On ch=1 n=50 v=0
67200 On ch=1 n=37 v=80
67427 On ch=1 n=37 v=0
67440 On ch=1 n=49 v=80
67667 On ch=1 n=49 v=0
67680 On ch=1 n=37 v=80
67793 On ch=1 n=37 v=0
67800 On ch=1 n=37 v=80
67913 On ch=1 n=37 v=0
67920 On ch=1 n=49 v=80
68033 On ch=1 n=49 v=0
68040 On ch=1 n=39 v=80
68267 On ch=1 n=39 v=0
68280 On ch=1 n=39 v=80
68393 On ch=1 n=39 v=0
68400 On ch=1 n=51 v=80
68513 On ch=1 n=51 v=0
68520 On ch=1 n=39 v=80
68633 On ch=1 n=39 v=0
68640 On ch=1 n=39 v=80
68753 On ch=1 n=39 v=0
68760 On ch=1 n=39 v=80
68873 On ch=1 n=39 v=0
68880 On ch=1 n=51 v=80
69107 On ch=1 n=51 v=0
69120 On ch=1 n=34 v=80
69347 On ch=1 n=34 v=0
69360 On ch=1 n=46 v=80
69587 On ch=1 n=46 v=0
69600 On ch=1 n=34 v=80
69713 On ch=1 n=34 v=0
69720 On ch=1 n=34 v=80
69833 On ch=1 n=34 v=0
69840 On ch=1 n=46 v=80
69953 On ch=1 n=46 v=0
69960 On ch=1 n=34 v=80
70187 On ch=1 n=34 v=0
70200 On ch=1 n=34 v=80
70313 On ch=1 n=34 v=0
70320 On ch=1 n=46 v=80
70433 On ch=1 n=46 v=0
70440 On ch=1 n=34 v=80
70553 On ch=1 n=34 v=0
70560 On ch=1 n=34 v=80
70673 On ch=1 n=34 v=0
70680 On ch=1 n=34 v=80
70793 On ch=1 n=34 v=0
70800 On ch=1 n=46 v=80
71027 On ch=1 n=46 v=0
71040 On ch=1 n=36 v=80
71267 On ch=1 n=36 v=0
71280 On ch=1 n=48 v=80
71507 On ch=1 n=48 v=0
71520 On ch=1 n=36 v=80
71633 On ch=1 n=36 v=0
71640 On ch=1 n=36 v=80
71753 On ch=1 n=36 v=0
71760 On ch=1 n=48 v=80
71873 On ch=1 n=48 v=0
71880 On ch=1 n=36 v=80
72107 On ch=1 n=36 v=0
72120 On ch=1 n=36 v=80
72233 On ch=1 n=36 v=0
72240 On ch=1 n=48 v=80
72353 On ch=1 n=48 v=0
72360 On ch=1 n=36 v=80
72473 On ch=1 n=36 v=0
72480 On ch=1 n=36 v=80
72593 On ch=1 n=36 v=0
72600 On ch=1 n=36 v=80
72713 On ch=1 n=36 v=0
72720 On ch=1 n=48 v=80
72947 On ch=1 n=48 v=0
72960 On ch=1 n=38 v=80
73187 On ch=1 n=38 v=0
73200 On ch=1 n=50 v=80
73427 On ch=1 n=50 v=0
73440 On ch=1 n=38 v=80
73553 On ch=1 n=38 v=0
73560 On ch=1 n=38 v=80
73673 On ch=1 n=38 v=0
73680 On ch=1 n=50 v=80
73793 On ch=1 n=50 v=0
73800 On ch=1 n=38 v=80
74027 On ch=1 n=38 v=0
74040 On ch=1 n=38 v=80
74153 On ch=1 n=38 v=0
74160 On ch=1 n=50 v=80
74273 On ch=1 n=50 v=0
74280 On ch=1 n=38 v=80
74393 On ch=1 n=38 v=0
74400 On ch=1 n=38 v=80
74513 On ch=1 n=38 v=0
74520 On ch=1 n=38 v=80
74633 On ch=1 n=38 v=0
74640 On ch=1 n=50 v=80
74867 On ch=1 n=50 v=0
74880 On ch=1 n=37 v=80
75107 On ch=1 n=37 v=0
75120 On ch=1 n=49 v=80
75347 On ch=1 n=49 v=0
75360 On ch=1 n=37 v=80
75473 On ch=1 n=37 v=0
75480 On ch=1 n=37 v=80
75593 On ch=1 n=37 v=0
75600 On ch=1 n=49 v=80
75713 On ch=1 n=49 v=0
75720 On ch=1 n=39 v=80
75947 On ch=1 n=39 v=0
75960 On ch=1 n=39 v=80
76073 On ch=1 n=39 v=0
76080 On ch=1 n=51 v=80
76193 On ch=1 n=51 v=0
76200 On ch=1 n=39 v=80
76313 On ch=1 n=39 v=0
76320 On ch=1 n=39 v=80
76433 On ch=1 n=39 v=0
76440 On ch=1 n=39 v=80
76553 On ch=1 n=39 v=0
76560 On ch=1 n=51 v=80
76787 On ch=1 n=51 v=0
76800 On ch=1 n=34 v=64
77027 On ch=1 n=34 v=0
77040 On ch=1 n=34 v=64
77267 On ch=1 n=34 v=0
77280 On ch=1 n=34 v=64
77393 On ch=1 n=34 v=0
77400 On ch=1 n=34 v=64
77627 On ch=1 n=34 v=0
77640 On ch=1 n=34 v=64
77867 On ch=1 n=34 v=0
77880 On ch=1 n=34 v=64
78107 On ch=1 n=34 v=0
78120 On ch=1 n=34 v=64
78233 On ch=1 n=34 v=0
78240 On ch=1 n=34 v=64
78353 On ch=1 n=34 v=0
78360 On ch=1 n=34 v=64
78473 On ch=1 n=34 v=0
78480 On ch=1 n=34 v=64
78707 On ch=1 n=34 v=0
78720 On ch=1 n=36 v=64
78947 On ch=1 n=36 v=0
78960 On ch=1 n=36 v=64
79187 On ch=1 n=36 v=0
79200 On ch=1 n=36 v=64
79313 On ch=1 n=36 v=0
79320 On ch=1 n=36 v=64
79547 On ch=1 n=36 v=0
79560 On ch=1 n=36 v=64
79787 On ch=1 n=36 v=0
79800 On ch=1 n=36 v=64
80027 On ch=1 n=36 v=0
80040 On ch=1 n=36 v=64
80153 On ch=1 n=36 v=0
80160 On ch=1 n=36 v=64
80273 On ch=1 n=36 v=0
80280 On ch=1 n=36 v=64
80393 On ch=1 n=36 v=0
80400 On ch=1 n=36 v=64
80627 On ch=1 n=36 v=0
80640 On ch=1 n=35 v=64
80867 On ch=1 n=35 v=0
80880 On ch=1 n=35 v=64
81107 On ch=1 n=35 v=0
81120 On ch=1 n=35 v=64
81233 On ch=1 n=35 v=0
81240 On ch=1 n=35 v=64
81467 On ch=1 n=35 v=0
81480 On ch=1 n=35 v=64
81707 On ch=1 n=35 v=0
81720 On ch=1 n=35 v=64
81947 On ch=1 n=35 v=0
81960 On ch=1 n=35 v=64
82073 On ch=1 n=35 v=0
82080 On ch=1 n=35 v=64
82193 On ch=1 n=35 v=0
82200 On ch=1 n=35 v=64
82313 On ch=1 n=35 v=0
82320 On ch=1 n=35 v=64
82547 On ch=1 n=35 v=0
82560 On ch=1 n=35 v=64
82787 On ch=1 n=35 v=0
82800 On ch=1 n=35 v=64
83027 On ch=1 n=35 v=0
83040 On ch=1 n=35 v=64
83153 On ch=1 n=35 v=0
83160 On ch=1 n=35 v=64
83387 On ch=1 n=35 v=0
83400 On ch=1 n=35 v=64
83627 On ch=1 n=35 v=0
83640 On ch=1 n=35 v=64
83867 On ch=1 n=35 v=0
83880 On ch=1 n=35 v=64
83993 On ch=1 n=35 v=0
84000 On ch=1 n=35 v=64
84113 On ch=1 n=35 v=0
84120 On ch=1 n=35 v=64
84233 On ch=1 n=35 v=0
84240 On ch=1 n=35 v=64
84467 On ch=1 n=35 v=0
84480 On ch=1 n=34 v=64
84707 On ch=1 n=34 v=0
84720 On ch=1 n=34 v=64
84947 On ch=1 n=34 v=0
84960 On ch=1 n=34 v=64
85073 On ch=1 n=34 v=0
85080 On ch=1 n=34 v=64
85307 On ch=1 n=34 v=0
85320 On ch=1 n=34 v=64
85547 On ch=1 n=34 v=0
85560 On ch=1 n=34 v=64
85787 On ch=1 n=34 v=0
85800 On ch=1 n=34 v=64
85913 On ch=1 n=34 v=0
85920 On ch=1 n=34 v=64
86033 On ch=1 n=34 v=0
86040 On ch=1 n=34 v=64
86153 On ch=1 n=34 v=0
86160 On ch=1 n=34 v=64
86387 On ch=1 n=34 v=0
86400 On ch=1 n=36 v=64
86627 On ch=1 n=36 v=0
86640 On ch=1 n=36 v=64
86867 On ch=1 n=36 v=0
86880 On ch=1 n=36 v=64
86993 On ch=1 n=36 v=0
87000 On ch=1 n=36 v=64
87227 On ch=1 n=36 v=0
87240 On ch=1 n=36 v=64
87467 On ch=1 n=36 v=0
87480 On ch=1 n=36 v=64
87707 On ch=1 n=36 v=0
87720 On ch=1 n=36 v=64
87833 On ch=1 n=36 v=0
87840 On ch=1 n=36 v=64
87953 On ch=1 n=36 v=0
87960 On ch=1 n=36 v=64
88073 On ch=1 n=36 v=0
88080 On ch=1 n=36 v=64
88307 On ch=1 n=36 v=0
88320 On ch=1 n=38 v=64
88547 On ch=1 n=38 v=0
88560 On ch=1 n=38 v=64
88787 On ch=1 n=38 v=0
88800 On ch=1 n=38 v=64
88913 On ch=1 n=38 v=0
88920 On ch=1 n=38 v=64
89147 On ch=1 n=38 v=0
89160 On ch=1 n=38 v=64
89387 On ch=1 n=38 v=0
89400 On ch=1 n=38 v=64
89627 On ch=1 n=38 v=0
89640 On ch=1 n=38 v=64
89753 On ch=1 n=38 v=0
89760 On ch=1 n=38 v=64
89873 On ch=1 n=38 v=0
89880 On ch=1 n=38 v=64
89993 On ch=1 n=38 v=0
90000 On ch=1 n=38 v=64
90227 On ch=1 n=38 v=0
90240 On ch=1 n=38 v=64
90467 On ch=1 n=38 v=0
90480 On ch=1 n=38 v=64
90707 On ch=1 n=38 v=0
90720 On ch=1 n=38 v=64
90833 On ch=1 n=38 v=0
90840 On ch=1 n=38 v=64
91067 On ch=1 n=38 v=0
91080 On ch=1 n=38 v=64
91307 On ch=1 n=38 v=0
91320 On ch=1 n=38 v=64
91547 On ch=1 n=38 v=0
91560 On ch=1 n=38 v=64
91673 On ch=1 n=38 v=0
91680 On ch=1 n=38 v=64
91793 On ch=1 n=38 v=0
91800 On ch=1 n=38 v=64
91913 On ch=1 n=38 v=0
91920 On ch=1 n=38 v=64
92147 On ch=1 n=38 v=0
92160 On ch=1 n=34 v=64
92387 On ch=1 n=34 v=0
92400 On ch=1 n=34 v=64
92627 On ch=1 n=34 v=0
92640 On ch=1 n=34 v=64
92753 On ch=1 n=34 v=0
92760 On ch=1 n=34 v=64
92987 On ch=1 n=34 v=0
93000 On ch=1 n=34 v=64
93227 On ch=1 n=34 v=0
93240 On ch=1 n=34 v=64
93467 On ch=1 n=34 v=0
93480 On ch=1 n=34 v=64
93593 On ch=1 n=34 v=0
93600 On ch=1 n=34 v=64
93713 On ch=1 n=34 v=0
93720 On ch=1 n=34 v=64
93833 On ch=1 n=34 v=0
93840 On ch=1 n=34 v=64
94067 On ch=1 n=34 v=0
94080 On ch=1 n=36 v=64
94307 On ch=1 n=36 v=0
94320 On ch=1 n=36 v=64
94547 On ch=1 n=36 v=0
94560 On ch=1 n=36 v=64
94673 On ch=1 n=36 v=0
94680 On ch=1 n=36 v=64
94907 On ch=1 n=36 v=0
94920 On ch=1 n=36 v=64
95147 On ch=1 n=36 v=0
95160 On ch=1 n=36 v=64
95387 On ch=1 n=36 v=0
95400 On ch=1 n=36 v=64
95513 On ch=1 n=36 v=0
95520 On ch=1 n=36 v=64
95633 On ch=1 n=36 v=0
95640 On ch=1 n=36 v=64
95753 On ch=1 n=36 v=0
95760 On ch=1 n=36 v=64
95987 On ch=1 n=36 v=0
96000 On ch=1 n=35 v=64
96227 On ch=1 n=35 v=0
96240 On ch=1 n=35 v=64
96467 On ch=1 n=35 v=0
96480 On ch=1 n=35 v=64
96593 On ch=1 n=35 v=0
96600 On ch=1 n=35 v=64
96827 On ch=1 n=35 v=0
96840 On ch=1 n=35 v=64
97067 On ch=1 n=35 v=0
97080 On ch=1 n=35 v=64
97307 On ch=1 n=35 v=0
97320 On ch=1 n=35 v=64
97433 On ch=1 n=35 v=0
97440 On ch=1 n=35 v=64
97553 On ch=1 n=35 v=0
97560 On ch=1 n=35 v=64
97673 On ch=1 n=35 v=0
97680 On ch=1 n=35 v=64
97907 On ch=1 n=35 v=0
97920 On ch=1 n=35 v=64
98147 On ch=1 n=35 v=0
98160 On ch=1 n=35 v=64
98387 On ch=1 n=35 v=0
98400 On ch=1 n=35 v=64
98513 On ch=1 n=35 v=0
98520 On ch=1 n=35 v=64
98747 On ch=1 n=35 v=0
98760 On ch=1 n=35 v=64
98987 On ch=1 n=35 v=0
99000 On ch=1 n=35 v=64
99227 On ch=1 n=35 v=0
99240 On ch=1 n=35 v=64
99353 On ch=1 n=35 v=0
99360 On ch=1 n=35 v=64
99473 On ch=1 n=35 v=0
99480 On ch=1 n=35 v=64
99593 On ch=1 n=35 v=0
99600 On ch=1 n=35 v=64
99827 On ch=1 n=35 v=0
99840 On ch=1 n=34 v=64
100067 On ch=1 n=34 v=0
100080 On ch=1 n=34 v=66
100307 On ch=1 n=34 v=0
100320 On ch=1 n=34 v=68
100433 On ch=1 n=34 v=0
100440 On ch=1 n=34 v=69
100667 On ch=1 n=34 v=0
100680 On ch=1 n=34 v=71
100907 On ch=1 n=34 v=0
100920 On ch=1 n=34 v=73
101147 On ch=1 n=34 v=0
101160 On ch=1 n=34 v=75
101273 On ch=1 n=34 v=0
101280 On ch=1 n=34 v=76
101393 On ch=1 n=34 v=0
101400 On ch=1 n=34 v=77
101513 On ch=1 n=34 v=0
101520 On ch=1 n=34 v=78
101747 On ch=1 n=34 v=0
101760 On ch=1 n=36 v=80
101987 On ch=1 n=36 v=0
102000 On ch=1 n=36 v=82
102227 On ch=1 n=36 v=0
102240 On ch=1 n=36 v=84
102353 On ch=1 n=36 v=0
102360 On ch=1 n=36 v=85
102587 On ch=1 n=36 v=0
102600 On ch=1 n=36 v=87
102827 On ch=1 n=36 v=0
102840 On ch=1 n=36 v=89
103067 On ch=1 n=36 v=0
103080 On ch=1 n=36 v=91
103193 On ch=1 n=36 v=0
103200 On ch=1 n=36 v=92
103313 On ch=1 n=36 v=0
103320 On ch=1 n=36 v=93
103433 On ch=1 n=36 v=0
103440 On ch=1 n=36 v=94
103667 On ch=1 n=36 v=0
103680 On ch=1 n=38 v=96
103907 On ch=1 n=38 v=0
103920 On ch=1 n=38 v=96
104147 On ch=1 n=38 v=0
104160 On ch=1 n=38 v=96
104273 On ch=1 n=38 v=0
104280 On ch=1 n=38 v=96
104507 On ch=1 n=38 v=0
104520 On ch=1 n=38 v=96
104747 On ch=1 n=38 v=0
104760 On ch=1 n=38 v=96
104987 On ch=1 n=38 v=0
105000 On ch=1 n=38 v=96
105113 On ch=1 n=38 v=0
105120 On ch=1 n=38 v=96
105233 On ch=1 n=38 v=0
105240 On ch=1 n=38 v=96
105353 On ch=1 n=38 v=0
105360 On ch=1 n=38 v=96
105587 On ch=1 n=38 v=0
105600 On ch=1 n=38 v=96
105827 On ch=1 n=38 v=0
105840 On ch=1 n=38 v=96
106067 On ch=1 n=38 v=0
106080 On ch=1 n=38 v=96
106193 On ch=1 n=38 v=0
106200 On ch=1 n=38 v=96
106427 On ch=1 n=38 v=0
106440 On ch=1 n=38 v=96
106667 On ch=1 n=38 v=0
106680 On ch=1 n=38 v=96
106907 On ch=1 n=38 v=0
106920 On ch=1 n=38 v=96
107033 On ch=1 n=38 v=0
107040 On ch=1 n=38 v=96
107153 On ch=1 n=38 v=0
107160 On ch=1 n=38 v=96
107273 On ch=1 n=38 v=0
107280 On ch=1 n=38 v=96
107507 On ch=1 n=38 v=0
107520 On ch=1 n=34 v=64
107747 On ch=1 n=34 v=0
107760 On ch=1 n=46 v=64
107987 On ch=1 n=46 v=0
108000 On ch=1 n=34 v=64
108113 On ch=1 n=34 v=0
108120 On ch=1 n=34 v=64
108233 On ch=1 n=34 v=0
108240 On ch=1 n=46 v=64
108353 On ch=1 n=46 v=0
108360 On ch=1 n=34 v=64
108587 On ch=1 n=34 v=0
108600 On ch=1 n=34 v=64
108713 On ch=1 n=34 v=0
108720 On ch=1 n=46 v=64
108833 On ch=1 n=46 v=0
108840 On ch=1 n=34 v=64
108953 On ch=1 n=34 v=0
108960 On ch=1 n=34 v=64
109073 On ch=1 n=34 v=0
109080 On ch=1 n=34 v=64
109193 On ch=1 n=34 v=0
109200 On ch=1 n=46 v=64
109427 On ch=1 n=46 v=0
109440 On ch=1 n=36 v=64
109667 On ch=1 n=36 v=0
109680 On ch=1 n=48 v=64
109907 On ch=1 n=48 v=0
109920 On ch=1 n=36 v=64
110033 On ch=1 n=36 v=0
110040 On ch=1 n=36 v=64
110153 On ch=1 n=36 v=0
110160 On ch=1 n=48 v=64
110273 On ch=1 n=48 v=0
110280 On ch=1 n=36 v=64
110507 On ch=1 n=36 v=0
110520 On ch=1 n=36 v=64
110633 On ch=1 n=36 v=0
110640 On ch=1 n=48 v=64
110753 On ch=1 n=48 v=0
110760 On ch=1 n=36 v=64
110873 On ch=1 n=36 v=0
110880 On ch=1 n=36 v=64
110993 On ch=1 n=36 v=0
111000 On ch=1 n=36 v=64
111113 On ch=1 n=36 v=0
111120 On ch=1 n=48 v=64
111347 On ch=1 n=48 v=0
111360 On ch=1 n=38 v=64
111587 On ch=1 n=38 v=0
111600 On ch=1 n=50 v=64
111827 On ch=1 n=50 v=0
111840 On ch=1 n=38 v=64
111953 On ch=1 n=38 v=0
111960 On ch=1 n=38 v=64
112073 On ch=1 n=38 v=0
112080 On ch=1 n=50 v=64
112193 On ch=1 n=50 v=0
112200 On ch=1 n=37 v=64
112427 On ch=1 n=37 v=0
112440 On ch=1 n=37 v=64
112553 On ch=1 n=37 v=0
112560 On ch=1 n=49 v=64
112673 On ch=1 n=49 v=0
112680 On ch=1 n=37 v=64
112793 On ch=1 n=37 v=0
112800 On ch=1 n=37 v=64
112913 On ch=1 n=37 v=0
112920 On ch=1 n=37 v=64
113033 On ch=1 n=37 v=0
113040 On ch=1 n=49 v=64
113267 On ch=1 n=49 v=0
113280 On ch=1 n=36 v=64
113507 On ch=1 n=36 v=0
113520 On ch=1 n=48 v=64
113747 On ch=1 n=48 v=0
113760 On ch=1 n=36 v=64
113873 On ch=1 n=36 v=0
113880 On ch=1 n=36 v=64
113993 On ch=1 n=36 v=0
114000 On ch=1 n=48 v=64
114113 On ch=1 n=48 v=0
114120 On ch=1 n=35 v=64
114347 On ch=1 n=35 v=0
114360 On ch=1 n=35 v=64
114473 On ch=1 n=35 v=0
114480 On ch=1 n=47 v=64
114593 On ch=1 n=47 v=0
114600 On ch=1 n=35 v=64
114713 On ch=1 n=35 v=0
114720 On ch=1 n=35 v=64
114833 On ch=1 n=35 v=0
114840 On ch=1 n=35 v=64
114953 On ch=1 n=35 v=0
114960 On ch=1 n=47 v=64
115187 On ch=1 n=47 v=0
115200 On ch=1 n=34 v=64
115427 On ch=1 n=34 v=0
115440 On ch=1 n=46 v=64
115667 On ch=1 n=46 v=0
115680 On ch=1 n=34 v=64
115793 On ch=1 n=34 v=0
115800 On ch=1 n=34 v=64
115913 On ch=1 n=34 v=0
115920 On ch=1 n=46 v=64
116033 On ch=1 n=46 v=0
116040 On ch=1 n=34 v=64
116267 On ch=1 n=34 v=0
116280 On ch=1 n=34 v=64
116393 On ch=1 n=34 v=0
116400 On ch=1 n=46 v=64
116513 On ch=1 n=46 v=0
116520 On ch=1 n=34 v=64
116633 On ch=1 n=34 v=0
116640 On ch=1 n=34 v=64
116753 On ch=1 n=34 v=0
116760 On ch=1 n=34 v=64
116873 On ch=1 n=34 v=0
116880 On ch=1 n=46 v=64
117107 On ch=1 n=46 v=0
117120 On ch=1 n=36 v=64
117347 On ch=1 n=36 v=0
117360 On ch=1 n=48 v=64
117587 On ch=1 n=48 v=0
117600 On ch=1 n=36 v=64
117713 On ch=1 n=36 v=0
117720 On ch=1 n=36 v=64
117833 On ch=1 n=36 v=0
117840 On ch=1 n=48 v=64
117953 On ch=1 n=48 v=0
117960 On ch=1 n=36 v=64
118187 On ch=1 n=36 v=0
118200 On ch=1 n=36 v=64
118313 On ch=1 n=36 v=0
118320 On ch=1 n=48 v=64
118433 On ch=1 n=48 v=0
118440 On ch=1 n=36 v=64
118553 On ch=1 n=36 v=0
118560 On ch=1 n=36 v=64
118673 On ch=1 n=36 v=0
118680 On ch=1 n=36 v=64
118793 On ch=1 n=36 v=0
118800 On ch=1 n=48 v=64
119027 On ch=1 n=48 v=0
119040 On ch=1 n=38 v=64
119267 On ch=1 n=38 v=0
119280 On ch=1 n=50 v=64
119507 On ch=1 n=50 v=0
119520 On ch=1 n=38 v=64
119633 On ch=1 n=38 v=0
119640 On ch=1 n=38 v=64
119753 On ch=1 n=38 v=0
119760 On ch=1 n=50 v=64
119873 On ch=1 n=50 v=0
119880 On ch=1 n=38 v=64
120107 On ch=1 n=38 v=0
120120 On ch=1 n=38 v=64
120233 On ch=1 n=38 v=0
120240 On ch=1 n=50 v=64
120353 On ch=1 n=50 v=0
120360 On ch=1 n=38 v=64
120473 On ch=1 n=38 v=0
120480 On ch=1 n=38 v=64
120593 On ch=1 n=38 v=0
120600 On ch=1 n=38 v=64
120713 On ch=1 n=38 v=0
120720 On ch=1 n=50 v=64
120947 On ch=1 n=50 v=0
120960 On ch=1 n=38 v=64
121187 On ch=1 n=38 v=0
121200 On ch=1 n=50 v=64
121427 On ch=1 n=50 v=0
121440 On ch=1 n=38 v=64
121553 On ch=1 n=38 v=0
121560 On ch=1 n=38 v=64
121673 On ch=1 n=38 v=0
121680 On ch=1 n=50 v=64
121793 On ch=1 n=50 v=0
121800 On ch=1 n=38 v=64
122027 On ch=1 n=38 v=0
122040 On ch=1 n=38 v=64
122153 On ch=1 n=38 v=0
122160 On ch=1 n=50 v=64
122273 On ch=1 n=50 v=0
122280 On ch=1 n=38 v=64
122393 On ch=1 n=38 v=0
122400 On ch=1 n=38 v=64
122513 On ch=1 n=38 v=0
122520 On ch=1 n=38 v=64
122633 On ch=1 n=38 v=0
122640 On ch=1 n=50 v=64
122867 On ch=1 n=50 v=0
122880 On ch=1 n=34 v=64
123107 On ch=1 n=34 v=0
123120 On ch=1 n=46 v=64
123347 On ch=1 n=46 v=0
123360 On ch=1 n=34 v=64
123473 On ch=1 n=34 v=0
123480 On ch=1 n=34 v=64
123593 On ch=1 n=34 v=0
123600 On ch=1 n=46 v=64
123713 On ch=1 n=46 v=0
123720 On ch=1 n=34 v=64
123947 On ch=1 n=34 v=0
123960 On ch=1 n=34 v=64
124073 On ch=1 n=34 v=0
124080 On ch=1 n=46 v=64
124193 On ch=1 n=46 v=0
124200 On ch=1 n=34 v=64
124313 On ch=1 n=34 v=0
124320 On ch=1 n=34 v=64
124433 On ch=1 n=34 v=0
124440 On ch=1 n=34 v=64
124553 On ch=1 n=34 v=0
124560 On ch=1 n=46 v=64
124787 On ch=1 n=46 v=0
124800 On ch=1 n=36 v=64
125027 On ch=1 n=36 v=0
125040 On ch=1 n=48 v=64
125267 On ch=1 n=48 v=0
125280 On ch=1 n=36 v=64
125393 On ch=1 n=36 v=0
125400 On ch=1 n=36 v=64
125513 On ch=1 n=36 v=0
125520 On ch=1 n=48 v=64
125633 On ch=1 n=48 v=0
125640 On ch=1 n=36 v=64
125867 On ch=1 n=36 v=0
125880 On ch=1 n=36 v=64
125993 On ch=1 n=36 v=0
126000 On ch=1 n=48 v=64
126113 On ch=1 n=48 v=0
126120 On ch=1 n=36 v=64
126233 On ch=1 n=36 v=0
126240 On ch=1 n=36 v=64
126353 On ch=1 n=36 v=0
126360 On ch=1 n=36 v=64
126473 On ch=1 n=36 v=0
126480 On ch=1 n=48 v=64
126707 On ch=1 n=48 v=0
126720 On ch=1 n=38 v=64
126947 On ch=1 n=38 v=0
126960 On ch=1 n=50 v=64
127187 On ch=1 n=50 v=0
127200 On ch=1 n=38 v=64
127313 On ch=1 n=38 v=0
127320 On ch=1 n=38 v=64
127433 On ch=1 n=38 v=0
127440 On ch=1 n=50 v=64
127553 On ch=1 n=50 v=0
127560 On ch=1 n=37 v=64
127787 On ch=1 n=37 v=0
127800 On ch=1 n=37 v=64
127913 On ch=1 n=37 v=0
127920 On ch=1 n=49 v=64
128033 On ch=1 n=49 v=0
128040 On ch=1 n=37 v=64
128153 On ch=1 n=37 v=0
128160 On ch=1 n=37 v=64
128273 On ch=1 n=37 v=0
128280 On ch=1 n=37 v=64
128393 On ch=1 n=37 v=0
128400 On ch=1 n=49 v=64
128627 On ch=1 n=49 v=0
128640 On ch=1 n=36 v=64
128867 On ch=1 n=36 v=0
128880 On ch=1 n=48 v=64
129107 On ch=1 n=48 v=0
129120 On ch=1 n=36 v=64
129233 On ch=1 n=36 v=0
129240 On ch=1 n=36 v=64
129353 On ch=1 n=36 v=0
129360 On ch=1 n=48 v=64
129473 On ch=1 n=48 v=0
129480 On ch=1 n=35 v=64
129707 On ch=1 n=35 v=0
129720 On ch=1 n=35 v=64
129833 On ch=1 n=35 v=0
129840 On ch=1 n=47 v=64
129953 On ch=1 n=47 v=0
129960 On ch=1 n=35 v=64
130073 On ch=1 n=35 v=0
130080 On ch=1 n=35 v=64
130193 On ch=1 n=35 v=0
130200 On ch=1 n=35 v=64
130313 On ch=1 n=35 v=0
130320 On ch=1 n=47 v=64
130547 On ch=1 n=47 v=0
130560 On ch=1 n=34 v=64
130787 On ch=1 n=34 v=0
130800 On ch=1 n=46 v=64
131027 On ch=1 n=46 v=0
131040 On ch=1 n=34 v=64
131153 On ch=1 n=34 v=0
131160 On ch=1 n=34 v=64
131273 On ch=1 n=34 v=0
131280 On ch=1 n=46 v=64
131393 On ch=1 n=46 v=0
131400 On ch=1 n=34 v=64
131627 On ch=1 n=34 v=0
131640 On ch=1 n=34 v=64
131753 On ch=1 n=34 v=0
131760 On ch=1 n=46 v=64
131873 On ch=1 n=46 v=0
131880 On ch=1 n=34 v=64
131993 On ch=1 n=34 v=0
132000 On ch=1 n=34 v=64
132113 On ch=1 n=34 v=0
132120 On ch=1 n=34 v=64
132233 On ch=1 n=34 v=0
132240 On ch=1 n=46 v=64
132467 On ch=1 n=46 v=0
132480 On ch=1 n=36 v=64
132707 On ch=1 n=36 v=0
132720 On ch=1 n=48 v=64
132947 On ch=1 n=48 v=0
132960 On ch=1 n=36 v=64
133073 On ch=1 n=36 v=0
133080 On ch=1 n=36 v=64
133193 On ch=1 n=36 v=0
133200 On ch=1 n=48 v=64
133313 On ch=1 n=48 v=0
133320 On ch=1 n=36 v=64
133547 On ch=1 n=36 v=0
133560 On ch=1 n=36 v=64
133673 On ch=1 n=36 v=0
133680 On ch=1 n=48 v=64
133793 On ch=1 n=48 v=0
133800 On ch=1 n=36 v=64
133913 On ch=1 n=36 v=0
133920 On ch=1 n=36 v=64
134033 On ch=1 n=36 v=0
134040 On ch=1 n=36 v=64
134153 On ch=1 n=36 v=0
134160 On ch=1 n=48 v=64
134387 On ch=1 n=48 v=0
134400 On ch=1 n=38 v=64
134627 On ch=1 n=38 v=0
134640 On ch=1 n=50 v=64
134867 On ch=1 n=50 v=0
134880 On ch=1 n=38 v=64
134993 On ch=1 n=38 v=0
135000 On ch=1 n=38 v=64
135113 On ch=1 n=38 v=0
135120 On ch=1 n=50 v=64
135233 On ch=1 n=50 v=0
135240 On ch=1 n=38 v=64
135467 On ch=1 n=38 v=0
135480 On ch=1 n=38 v=64
135593 On ch=1 n=38 v=0
135600 On ch=1 n=50 v=64
135713 On ch=1 n=50 v=0
135720 On ch=1 n=38 v=64
135833 On ch=1 n=38 v=0
135840 On ch=1 n=38 v=64
135953 On ch=1 n=38 v=0
135960 On ch=1 n=38 v=64
136073 On ch=1 n=38 v=0
136080 On ch=1 n=50 v=64
136307 On ch=1 n=50 v=0
136320 On ch=1 n=38 v=64
136547 On ch=1 n=38 v=0
136560 On ch=1 n=50 v=64
136787 On ch=1 n=50 v=0
136800 On ch=1 n=38 v=64
136913 On ch=1 n=38 v=0
136920 On ch=1 n=38 v=64
137033 On ch=1 n=38 v=0
137040 On ch=1 n=50 v=64
137153 On ch=1 n=50 v=0
137160 On ch=1 n=38 v=64
137387 On ch=1 n=38 v=0
137400 On ch=1 n=38 v=64
137513 On ch=1 n=38 v=0
137520 On ch=1 n=50 v=64
137633 On ch=1 n=50 v=0
137640 On ch=1 n=38 v=64
137753 On ch=1 n=38 v=0
137760 On ch=1 n=38 v=64
137873 On ch=1 n=38 v=0
137880 On ch=1 n=38 v=64
137993 On ch=1 n=38 v=0
138000 On ch=1 n=50 v=64
138227 On ch=1 n=50 v=0
149760 KeySig 255 major
149761 Meta TrkEnd
TrkEnd